<?xml version="1.0" encoding="UTF-8"?><svg id="Capa_1" xmlns="http://www.w3.org/2000/svg" viewBox="0 0 586.82 537.61"><defs><style>.cls-1{fill:#fff;}.cls-2,.cls-3{opacity:.9;}.cls-2,.cls-4{fill:#263238;}.cls-5,.cls-6,.cls-7{opacity:.5;}.cls-8{fill:#37474f;}.cls-9,.cls-10{opacity:.6;}.cls-11{fill:#455a64;}.cls-12,.cls-13{opacity:.8;}.cls-12,.cls-10,.cls-14,.cls-7{fill:#d5f2d1;}.cls-6{fill:#b9e5b1;}.cls-15{fill:#59c447;}.cls-16{fill:#e6e6e6;}.cls-17{opacity:.15;}.cls-18{fill:#a8e29f;}.cls-19{fill:#95e28a;}</style></defs><g id="Desk"><g id="Keyboard"><path id="Shadow" class="cls-17" d="M258.98,473.9l-63.33,36.67c-1.96,1.13-5.14,1.14-7.1,0L1.47,402.71c-1.96-1.13-1.96-2.97,0-4.1l63.33-36.67c1.96-1.13,5.14-1.14,7.1,0l187.08,107.87c1.96,1.13,1.96,2.97,0,4.1Z"/><g id="Keyboard-2"><g><path class="cls-4" d="M5.31,392.1c0-.74,.49-1.48,1.47-2.05l59.49-34.34c1.96-1.13,5.14-1.13,7.1,0l181.53,104.98c.98,.57,1.47,1.31,1.47,2.05,0,.74,0,5.5,0,6.24,0,.74-.49,1.48-1.47,2.05l-59.46,34.34c-1.96,1.13-5.14,1.12-7.1,0L6.78,400.55c-.98-.56-1.47-1.3-1.47-2.04,0-.74,0-5.66,0-6.41Z"/><path class="cls-8" d="M195.43,498.97l59.46-34.18c1.96-1.13,1.96-2.96,0-4.09l-181.53-104.98c-1.96-1.13-5.14-1.13-7.1,0L6.78,390.05c-1.96,1.13-1.96,2.97,0,4.1l181.55,104.81c1.96,1.13,5.14,1.13,7.1,0Z"/><path class="cls-4" d="M192.11,499.81v6.38c1.2-.03,2.4-.3,3.33-.82l59.44-34.34c.98-.57,1.48-1.31,1.48-2.05v-6.26c0,.74-.49,1.47-1.48,2.05l-59.44,34.2c-.93,.52-2.13,.81-3.33,.83Z"/></g><path class="cls-15" d="M16.32,392.56s.03-.07,.04-.07l5.89-3.4,7.99,4.61-5.92,3.51-7.98-4.61v-.04Zm9.2-5.32s.03-.07,.04-.08l5.89-3.4,6.27,3.62-5.93,3.51-6.27-3.62v-.04Zm1.93,11.76s.03-.07,.04-.07l5.89-3.4,6.27,3.62-5.93,3.51-6.26-3.62v-.04Zm7.26-17.09s.03-.07,.04-.08l5.89-3.4,10.13,5.85-5.92,3.52-10.13-5.85v-.04Zm.22,10.77s.03-.07,.04-.08l5.89-3.4,4.99,2.88-5.93,3.52-4.98-2.87v-.04Zm1.93,11.76s.03-.07,.04-.08l5.89-3.4,6.27,3.62-5.93,3.51-6.26-3.62v-.04Zm6.2-7.05s.03-.07,.05-.08l5.89-3.4,4.98,2.88-5.92,3.51-4.98-2.87v-.04Zm.83-20.8s.03-.07,.04-.08l5.89-3.4,7.99,4.61-5.93,3.51-7.98-4.61v-.04Zm2.38,33.31s.03-.07,.04-.08l5.89-3.4,45.33,26.17-5.93,3.51-45.32-26.17v-.04Zm1.69-20.31s.03-.07,.04-.08l5.89-3.4,4.98,2.88-5.92,3.51-4.98-2.87v-.04Zm3.22,12.51s.03-.07,.04-.08l5.89-3.4,4.98,2.88-5.92,3.51-4.98-2.87v-.04Zm1.89-30.83s.03-.07,.04-.08l5.89-3.4,4.98,2.88-5.92,3.52-4.98-2.87v-.04Zm1.93,11.76s.03-.07,.04-.08l5.89-3.4,4.99,2.88-5.93,3.51-4.98-2.87v-.04Zm1.08,11.27s.03-.07,.04-.08l5.89-3.4,4.98,2.88-5.93,3.52-4.97-2.87v-.04Zm3.22,12.51s.03-.07,.04-.08l5.89-3.4,4.98,2.88-5.93,3.51-4.97-2.87v-.04Zm1.89-30.83s.03-.07,.04-.08l5.89-3.4,4.98,2.88-5.92,3.51-4.98-2.87v-.04Zm1.93,11.76s.03-.07,.04-.08l5.89-3.4,4.99,2.88-5.93,3.51-4.98-2.87v-.04Zm1.07,11.27s.03-.07,.05-.08l5.89-3.4,4.98,2.88-5.93,3.52-4.97-2.87v-.04Zm0-34.2s.03-.07,.04-.08l5.89-3.4,6.27,3.62-5.93,3.51-6.26-3.62v-.04Zm3.22,46.71s.03-.07,.04-.08l5.89-3.4,4.98,2.88-5.92,3.51-4.98-2.87v-.04Zm1.89-30.83s.03-.07,.04-.08l5.89-3.4,4.98,2.88-5.92,3.51-4.98-2.87v-.04Zm1.93,11.77s.03-.07,.04-.08l5.89-3.4,4.99,2.88-5.93,3.51-4.98-2.87v-.04Zm1.08,11.27s.03-.07,.04-.08l5.89-3.4,4.98,2.88-5.93,3.51-4.97-2.87v-.04Zm3.22,12.51s.03-.07,.04-.08l5.89-3.4,4.98,2.88-5.92,3.51-4.98-2.87v-.04Zm1.6-43.92s.03-.07,.04-.08l5.89-3.4,4.98,2.88-5.93,3.51-4.98-2.87v-.04Zm.28,13.09s.03-.07,.05-.08l5.89-3.4,4.98,2.88-5.93,3.52-4.97-2.87v-.04Zm1.93,11.76s.03-.07,.04-.08l5.89-3.4,4.99,2.88-5.93,3.51-4.98-2.87v-.04Zm1.07,11.27s.03-.07,.05-.08l5.89-3.4,4.98,2.88-5.93,3.51-4.97-2.87v-.04Zm3.22,12.51s.03-.07,.05-.08l5.89-3.4,4.98,2.88-5.93,3.51-4.97-2.87v-.04Zm1.6-43.92s.03-.07,.04-.08l5.89-3.4,4.99,2.88-5.93,3.51-4.98-2.87v-.04Zm.28,13.08s.03-.07,.04-.07l5.89-3.4,4.98,2.88-5.93,3.51-4.97-2.87v-.04Zm1.93,11.77s.03-.07,.04-.08l5.89-3.4,4.99,2.88-5.93,3.51-4.98-2.87v-.04Zm1.07,11.27s.03-.07,.04-.08l5.89-3.4,4.98,2.88-5.93,3.51-4.97-2.87v-.04Zm3.22,12.51s.03-.07,.04-.08l5.89-3.4,4.98,2.88-5.92,3.51-4.98-2.87v-.04Zm1.6-43.92s.03-.07,.04-.08l5.89-3.4,4.99,2.88-5.93,3.51-4.98-2.87v-.04Zm.28,13.08s.03-.07,.04-.08l5.89-3.4,4.98,2.88-5.93,3.51-4.97-2.87v-.04Zm.89,43.09s.03-.07,.04-.08l5.89-3.4,6.27,3.62-5.93,3.52-6.26-3.62v-.04Zm1.03-31.33s.03-.07,.04-.08l5.89-3.4,4.99,2.88-5.93,3.51-4.98-2.87v-.04Zm1.07,11.27s.03-.07,.04-.07l5.89-3.4,4.98,2.88-5.93,3.51-4.97-2.87v-.04Zm3.22,12.51s.03-.07,.04-.08l5.89-3.4,4.98,2.88-5.93,3.51-4.97-2.87v-.04Zm1.6-43.92s.03-.07,.04-.08l5.89-3.4,4.99,2.88-5.93,3.51-4.98-2.87v-.04Zm.28,13.09s.03-.07,.05-.08l5.89-3.4,4.98,2.88-5.93,3.51-4.97-2.87v-.04Zm1.93,11.76s.03-.07,.04-.08l5.89-3.4,4.99,2.88-5.93,3.51-4.98-2.87v-.04Zm.24,32.07s.03-.07,.05-.08l5.89-3.4,6.27,3.62-5.92,3.52-6.27-3.62v-.04Zm.82-20.8s.03-.07,.05-.08l5.89-3.4,4.98,2.88-5.93,3.51-4.97-2.87v-.04Zm3.22,12.51s.03-.07,.05-.08l5.89-3.4,4.98,2.88-5.92,3.51-4.98-2.87v-.04Zm1.88-30.83s.03-.07,.04-.08l5.89-3.4,4.98,2.88-5.93,3.52-4.97-2.87v-.04Zm1.93,11.76s.03-.07,.04-.08l5.89-3.4,4.98,2.88-5.92,3.51-4.98-2.87v-.04Zm1.07,11.27s.03-.07,.04-.08l5.89-3.4,4.98,2.88-5.93,3.51-4.97-2.87v-.04Zm.22-34.07s.03-.07,.04-.08l5.89-3.4,4.99,2.88-5.93,3.51-4.98-2.87v-.04Zm.21,55.62s.03-.07,.04-.08l5.89-3.4,6.27,3.62-5.93,3.51-6.27-3.62v-.04Zm2.77-9.04s.03-.07,.04-.07l5.89-3.4,4.98,2.88-5.93,3.51-4.97-2.87v-.04Zm1.89-30.83s.04-.07,.05-.08l5.88-3.39,4.99,2.88-5.93,3.52-4.97-2.87v-.04Zm1.93,11.76s.03-.07,.04-.08l5.89-3.4,4.99,2.88-5.93,3.51-4.98-2.87v-.04Zm1.07,11.27s.03-.07,.04-.08l5.89-3.4,4.98,2.88-5.93,3.51-4.97-2.87v-.04Zm.22-34.07s.03-.07,.04-.08l5.89-3.4,4.99,2.88-5.93,3.51-4.98-2.87v-.04Zm1.5,56.36s.03-.07,.04-.08l5.89-3.4,7.99,4.61-5.93,3.51-7.98-4.61v-.04Zm1.48-9.78s.03-.07,.05-.08l5.89-3.4,15.71,9.07-5.93,3.51-15.71-9.07v-.04Zm1.89-30.84s.03-.07,.04-.08l5.89-3.4,4.98,2.88-5.93,3.51-4.97-2.87v-.04Zm1.93,11.77s.03-.07,.04-.08l5.89-3.4,4.99,2.88-5.93,3.51-4.98-2.87v-.04Zm1.07,11.27s.03-.07,.04-.07l5.89-3.4,4.98,2.88-5.93,3.51-4.97-2.87v-.04Zm.22-34.07s.03-.07,.04-.08l5.89-3.4,4.99,2.88-5.93,3.51-4.98-2.87v-.04Zm4.88,15.74s.03-.07,.04-.08l5.89-3.4,4.98,2.88-5.93,3.51-4.97-2.87v-.04Zm1.32,43.34s.03-.06,.04-.07l5.89-3.4,4.98,2.88-5.93,3.51-4.97-2.87v-.04Zm.6-31.58s.03-.07,.04-.08l5.89-3.4,4.98,2.88-5.92,3.51-4.98-2.87v-.04Zm1.07,11.27s.03-.06,.04-.07l5.89-3.4,4.55,2.63c.32,.18,.85,.29,1.44,.29s1.16-.11,1.51-.31l7.73-4.47,5.84,3.37-15.14,8.84-11.85-6.84v-.04Zm.22-34.07s.03-.07,.04-.08l5.89-3.4,4.99,2.88-5.93,3.51-4.98-2.87v-.04Zm4.88,15.74s.03-.07,.04-.08l5.89-3.4,4.99,2.88-5.93,3.51-4.97-2.87v-.04Zm1.32,43.34s.03-.07,.04-.08l5.89-3.4,4.98,2.88-5.93,3.51-4.97-2.87v-.04Zm.6-31.58s.03-.07,.04-.08l5.89-3.4,4.98,2.88-5.93,3.51-4.97-2.87v-.04Zm4.86-20.75s.03-.07,.04-.08l5.89-3.4,4.99,2.88-5.93,3.51-4.98-2.87v-.04Zm1.34,13.69s.03-.07,.04-.08l5.89-3.4,4.99,2.88-5.93,3.51-4.97-2.87v-.04Zm1.32,43.34s.03-.07,.05-.08l5.89-3.4,4.98,2.88-5.93,3.51-4.97-2.87v-.04Zm1.05-10.03s.03-.07,.04-.08l5.89-3.4,4.98,2.88-5.93,3.51-4.98-2.87v-.04Zm4.41-42.3s.03-.07,.04-.08l5.89-3.4,4.98,2.88-5.92,3.51-4.98-2.87v-.04Zm1.34,13.69s.03-.07,.04-.08l5.89-3.4,8.85,5.11-5.93,3.51-8.83-5.1v-.04Zm3.04,44.33s.03-.07,.04-.08l5.89-3.4,13.14,7.59-5.93,3.51-13.13-7.58v-.04Zm1.46-31.08s.03-.07,.04-.08l5.89-3.4,4.99,2.88-5.92,3.51-4.98-2.87v-.04Zm2.28-22.24s.03-.07,.04-.08l5.89-3.4,4.98,2.88-5.92,3.51-4.98-2.87v-.04Zm5.45,48s.03-.07,.04-.08l5.89-3.4,4.99,2.88-5.92,3.51-4.98-2.87v-.04Zm.4-21.05s.03-.07,.04-.08l5.89-3.4,4.99,2.88-5.93,3.52-4.98-2.87v-.04Zm1.05-10.03s.03-.07,.04-.08l5.89-3.4,4.99,2.88-5.93,3.51-4.98-2.87v-.04Zm1.22-12.21s.03-.07,.04-.08l5.89-3.4,4.98,2.88-5.92,3.51-4.98-2.87v-.04Zm4.38,58.03s.03-.07,.04-.08l5.89-3.4,4.99,2.88-5.93,3.52-4.98-2.87v-.04Zm1.05-10.03s.03-.07,.04-.08l5.89-3.4,4.99,2.88-5.93,3.51-4.98-2.87v-.04Zm.4-21.05s.03-.07,.04-.08l5.89-3.4,4.99,2.88-5.93,3.51-4.98-2.87v-.04Zm.65,11.02s.03-.07,.04-.08l5.89-3.4,4.98,2.88-5.92,3.51-4.98-2.87v-.04Zm.4-21.05s.03-.07,.04-.08l5.89-3.4,4.99,2.88-5.93,3.51-4.98-2.87v-.04Zm3.02-11.17s.03-.07,.04-.08l5.89-3.4,4.99,2.88-5.93,3.51-4.98-2.87v-.04Zm2.58,56.99s.03-.07,.04-.08l15.1-8.72,4.99,2.88-15.14,8.84-4.98-2.88v-.04Zm1.05-10.03s.03-.07,.04-.08l5.89-3.4,4.99,2.88-5.93,3.52-4.98-2.87v-.04Zm1.05-10.03s.03-.07,.04-.08l5.89-3.4,4.98,2.88-5.92,3.51-4.98-2.87v-.04Zm.4-21.05s.03-.07,.04-.08l5.89-3.4,4.99,2.88-5.93,3.51-4.98-2.87v-.04Zm.64,11.02s.03-.07,.04-.07l5.89-3.4,4.98,2.88-5.93,3.51-4.97-2.87v-.04Zm2.37-22.19s.03-.07,.04-.08l5.89-3.4,4.99,2.88-5.93,3.51-4.98-2.87v-.04Zm4.71,36.93s.03-.07,.04-.08l5.89-3.4,4.98,2.88-5.92,3.52-4.98-2.87v-.04Zm1.05-10.03s.03-.07,.04-.07l5.89-3.4,4.98,2.88-5.93,3.52-4.97-2.87v-.04Zm1.05-10.03s.03-.07,.04-.08l5.89-3.4,4.99,2.88-5.93,3.51-4.97-2.87v-.04Zm1.3-12.16s.03-.07,.04-.08l5.89-3.4,4.99,2.88-5.93,3.51-4.98-2.87v-.04Zm4.71,36.93s.03-.07,.04-.08l15.1-8.72,4.98,2.88-15.14,8.84-4.98-2.88v-.04Zm1.05-10.03s.03-.07,.04-.07l5.89-3.4,4.98,2.88-5.93,3.51-4.97-2.87v-.04Zm1.05-10.03s.03-.06,.04-.07l5.89-3.4,4.99,2.88-5.93,3.51-4.97-2.87v-.04Zm5.39-12.53s.03-.07,.04-.08l2.5-1.48,4.99,2.88-2.56,1.58-4.96-2.86v-.04Zm2.74,17.24s.03-.07,.04-.08l5.89-3.4,4.99,2.88-5.93,3.51-4.97-2.87v-.04Zm5.39-12.53s.03-.07,.04-.08l2.5-1.47,4.99,2.88-2.56,1.58-4.96-2.86v-.04Zm2.74,17.24s.03-.07,.04-.08l5.89-3.4,4.99,2.88-5.93,3.51-4.97-2.87v-.04Zm5.39-12.53s.03-.07,.04-.08l2.5-1.47,4.99,2.88-2.56,1.58-4.96-2.86v-.04Zm8.14,4.71s.03-.07,.05-.08l2.5-1.48,4.99,2.88-2.56,1.58-4.96-2.86v-.04Z"/></g></g><g id="Device"><g id="Monitor"><g><path class="cls-4" d="M247.58,428.66l-39.77-23c-4.1-2.37-6.15-5.47-6.15-8.57,0-3.1-.02-5.53-.02-5.53l37.42-21.24c2.19-1.26,3.96-4.33,3.96-6.86v-49.03l69.46,40.14v49.03c0,2.52-1.77,5.59-3.96,6.86l-31.26,18.2c-8.2,4.73-21.49,4.73-29.69,0Z"/><path class="cls-4" d="M295.81,412.29v5.51l12.73-7.34c2.17-1.26,3.95-4.32,3.95-6.86v-49.03l-13.23-7.63c-.27,3.36-.57,6.83-.85,10.22l9.28,5.37v38.31c0,2.54-1.76,5.6-3.95,6.86l-7.93,4.59Z"/><path class="cls-8" d="M307.7,400.84c0,2.52-1.77,5.59-3.96,6.86l-26.46,15.43c-8.2,4.73-21.49,4.74-29.69,0l-39.79-22.99c-8.2-4.73-8.2-12.41,0-17.14l26.48-15.44c2.19-1.26,3.96-4.33,3.96-6.86v-38.31l69.47,40.14v38.31Z"/><path class="cls-8" d="M226.21,372.22h0l8.06-4.66c2.19-1.26,3.96-4.33,3.96-6.86v-38.31l69.47,40.14v38.31c0,2.52-1.77,5.59-3.96,6.86l-7.92,4.57-69.61-40.06Z"/><path class="cls-4" d="M201.65,391.57v5.53c0,3.11,2.06,6.19,6.15,8.57l39.78,22.98c3.93,2.29,9.03,3.43,14.17,3.52v-5.51c-5.14-.07-10.24-1.26-14.17-3.52l-39.78-23.01c-4.09-2.35-6.15-5.46-6.15-8.57Z"/></g><path class="cls-11" d="M419.23,453.74c-2.56,1.48-6.86,1.4-9.59-.18-34.15-19.72-234.5-135.38-268.64-155.1-2.73-1.58-4.95-5.41-4.95-8.57V54.76c0-3.16,2.08-6.91,4.64-8.39,2.56-1.48,6.86-1.4,9.59,.18L418.92,201.64c2.73,1.58,4.95,5.42,4.95,8.57v235.14c0,3.16-2.08,6.91-4.64,8.39Z"/><path class="cls-8" d="M409.64,453.56L141,298.46c-2.73-1.58-4.95-5.42-4.95-8.57V54.75c0-3.16,2.22-4.44,4.95-2.86L409.64,206.99c2.73,1.58,4.95,5.42,4.95,8.57v235.14c0,3.16-2.21,4.43-4.95,2.86Z"/><path class="cls-4" d="M410.37,454.54c2.74,1.21,6.54,1.17,8.87-.18,2.56-1.49,4.64-5.23,4.64-8.41v-26.45l-9.28,5.37v26.45c0,2.88-1.83,4.18-4.23,3.22Z"/><path class="cls-8" d="M414.59,424.87v26.44c0,3.16-2.22,4.43-4.95,2.86L141,299.07c-2.73-1.58-4.95-5.42-4.95-8.57v-26.45l278.54,160.81Z"/><path class="cls-18" d="M405.31,404.75V218.64c0-1.89-1.33-4.2-2.97-5.14L148.31,66.84c-1.64-.95-2.97-.18-2.97,1.71V254.66c0,1.89,1.32,4.2,2.96,5.14l254.04,146.66c1.64,.95,2.97,.18,2.97-1.71Z"/><path class="cls-7" d="M405.31,406.33V220.23c0-1.89-1.33-4.2-2.97-5.14L148.31,68.43c-1.64-.95-2.97-.18-2.97,1.71v186.11c0,1.89,1.32,4.2,2.96,5.14l254.04,146.66c1.64,.95,2.97,.18,2.97-1.71Z"/><path class="cls-11" d="M275.32,354.57c2.56,1.48,4.64,5.08,4.64,8.04s-2.08,4.16-4.64,2.68c-2.56-1.48-4.64-5.08-4.64-8.04,0-2.96,2.08-4.16,4.64-2.68Z"/><path class="cls-4" d="M413.13,210.67c.89,1.55,1.44,3.31,1.46,4.89v209.31l9.28-5.37V210.21c0-1.58-.57-3.34-1.46-4.89l-9.28,5.35Z"/></g></g><g id="Window"><g id="Window-2"><path class="cls-11" d="M180.01,6.21c.02-.16,.03-.3,.08-.44-.02-.03,0-.06,.02-.09,.02-.16,.06-.3,.11-.42,.06-.22,.16-.42,.28-.61,.03-.09,.09-.17,.16-.25,.05-.06,.08-.12,.14-.17,.09-.12,.19-.22,.31-.31l.03-.03c.12-.09,.26-.17,.4-.23,.85-.4,1.96-.3,3.19,.4L498.22,184.98c2.61,1.51,4.74,5.19,4.74,8.21v226.91s0,.03,0,.04v1.04c0,1.28-.72,2.31-1.71,2.85-.07,.04-.14,.09-.2,.13-.08,.05-.16,.09-.25,.14-.12,.06-.26,.11-.4,.14-.2,.05-.4,.08-.61,.08-.48,.02-1.03-.14-1.57-.45l-.12-.07h-.01l-4.52-2.61L184.72,243.06c-2.61-1.51-4.74-5.18-4.74-8.21V6.8c0-.2,.02-.4,.03-.59Z"/><g><path class="cls-19" d="M181.53,3.66c.85-.4,1.96-.3,3.19,.4L498.22,184.98c2.61,1.51,4.74,5.19,4.74,8.21v15.48l6.05-3.54v-15.37c0-3.02-2.11-6.68-4.73-8.19L190.76,.64c-1.35-.79-2.56-.81-3.44-.28-.85,.51-4.79,2.77-5.8,3.3Z"/><path class="cls-19" d="M179.99,6.77c.02-2.99,2.13-4.2,4.73-2.7L498.23,184.99c2.62,1.51,4.74,5.18,4.74,8.2v15.49L179.99,22.31V6.77Z"/><g class="cls-5"><path class="cls-14" d="M184.72,4.07L498.22,184.99c1.3,.76,2.49,2.04,3.34,3.51l6.02-3.49c-.85-1.46-2.01-2.73-3.29-3.46L190.77,.64c-1.36-.79-2.56-.8-3.44-.28-.85,.52-4.78,2.76-5.78,3.29,.83-.4,1.95-.28,3.17,.42Z"/></g><path class="cls-17" d="M509.02,205.15v-15.4c0-1.53-.57-3.23-1.44-4.74l-6.03,3.47c.88,1.49,1.41,3.17,1.41,4.71v15.49l6.06-3.53Z"/></g><g><path class="cls-11" d="M492.28,188.26c1.48,.85,2.68,3.39,2.68,5.66s-1.2,3.43-2.68,2.57c-1.48-.85-2.68-3.39-2.68-5.66s1.2-3.43,2.68-2.57Z"/><path class="cls-11" d="M482.65,182.69c1.48,.85,2.68,3.39,2.68,5.66s-1.2,3.43-2.68,2.57c-1.48-.85-2.68-3.39-2.68-5.66s1.2-3.43,2.68-2.57Z"/><path class="cls-11" d="M473.02,177.12c1.48,.85,2.68,3.39,2.68,5.66s-1.2,3.43-2.68,2.57c-1.48-.85-2.68-3.39-2.68-5.66s1.2-3.43,2.68-2.57Z"/></g><path class="cls-2" d="M501.26,424.04l.25-.14,4.99-2.89c1.35-.77,2.26-2.14,2.47-3.67,.03-.23,.05-.46,.05-.69V205.13l-6.05,3.55v212.49c0,1.18-.6,2.15-1.47,2.69-.05,.05-.11,.08-.15,.11-.02,.02-.02,.03-.03,.03l-.05,.05Z"/></g><g id="Code"><g><path class="cls-19" d="M276.02,103.06l66.1,38.09c.93,.54,1.68,1.79,1.68,2.79s-.75,1.39-1.68,.85l-66.1-38.09c-.93-.54-1.68-1.79-1.68-2.79s.75-1.39,1.68-.85Z"/><path class="cls-16" d="M301.27,175.97l25.05,14.41c.93,.54,1.68,1.79,1.68,2.79s-.75,1.39-1.68,.85l-25.05-14.41c-.93-.54-1.68-1.79-1.68-2.79s.75-1.39,1.68-.85Z"/><path class="cls-16" d="M301.27,190.55l25.05,14.41c.93,.54,1.68,1.79,1.68,2.79s-.75,1.39-1.68,.85l-25.05-14.41c-.93-.54-1.68-1.79-1.68-2.79s.75-1.39,1.68-.85Z"/><path class="cls-19" d="M348.64,144.91l132.33,76.21c.93,.54,1.68,1.79,1.68,2.79s-.75,1.39-1.68,.85l-132.33-76.21c-.93-.54-1.68-1.79-1.68-2.79s.75-1.39,1.68-.85Z"/><path class="cls-19" d="M301.82,278.22l40.29,23.32c.93,.54,1.68,1.79,1.68,2.79s-.75,1.39-1.68,.85l-40.29-23.31c-.93-.54-1.68-1.79-1.68-2.79,0-1.01,.75-1.39,1.68-.85Z"/><path class="cls-19" d="M348.64,305.3l132.33,76.31c.93,.54,1.68,1.79,1.68,2.79s-.75,1.39-1.68,.85l-132.33-76.31c-.93-.54-1.68-1.79-1.68-2.79s.75-1.39,1.68-.85Z"/><g><path class="cls-19" d="M276.02,117.68l33.29,19.13c.93,.54,1.68,1.79,1.68,2.79s-.75,1.39-1.68,.85l-33.29-19.13c-.93-.54-1.68-1.79-1.68-2.79s.75-1.39,1.68-.85Z"/><path class="cls-10" d="M276.02,117.68l33.29,19.13c.93,.54,1.68,1.79,1.68,2.79s-.75,1.39-1.68,.85l-33.29-19.13c-.93-.54-1.68-1.79-1.68-2.79s.75-1.39,1.68-.85Z"/></g><g><path class="cls-19" d="M276.02,132.23l15.58,8.98c.93,.54,1.68,1.79,1.68,2.79s-.75,1.39-1.68,.85l-15.58-8.98c-.93-.54-1.68-1.79-1.68-2.79s.75-1.39,1.68-.85Z"/><path class="cls-6" d="M276.02,132.23l15.58,8.98c.93,.54,1.68,1.79,1.68,2.79s-.75,1.39-1.68,.85l-15.58-8.98c-.93-.54-1.68-1.79-1.68-2.79s.75-1.39,1.68-.85Z"/></g><g><path class="cls-19" d="M276.02,161.39l15.58,8.98c.93,.54,1.68,1.79,1.68,2.79s-.75,1.39-1.68,.85l-15.58-8.98c-.93-.54-1.68-1.79-1.68-2.79s.75-1.39,1.68-.85Z"/><path class="cls-6" d="M276.02,161.39l15.58,8.98c.93,.54,1.68,1.79,1.68,2.79s-.75,1.39-1.68,.85l-15.58-8.98c-.93-.54-1.68-1.79-1.68-2.79s.75-1.39,1.68-.85Z"/></g><g><path class="cls-19" d="M276.02,175.97l15.58,8.98c.93,.54,1.68,1.79,1.68,2.79s-.75,1.39-1.68,.85l-15.58-8.98c-.93-.54-1.68-1.79-1.68-2.79s.75-1.39,1.68-.85Z"/><path class="cls-6" d="M276.02,175.97l15.58,8.98c.93,.54,1.68,1.79,1.68,2.79s-.75,1.39-1.68,.85l-15.58-8.98c-.93-.54-1.68-1.79-1.68-2.79s.75-1.39,1.68-.85Z"/></g><g><path class="cls-19" d="M315.83,140.57l19.97,11.56c.93,.54,1.68,1.79,1.68,2.79s-.75,1.39-1.68,.85l-19.97-11.56c-.93-.54-1.68-1.79-1.68-2.79,0-1.01,.75-1.39,1.68-.85Z"/><path class="cls-10" d="M315.83,140.57l19.97,11.56c.93,.54,1.68,1.79,1.68,2.79s-.75,1.39-1.68,.85l-19.97-11.56c-.93-.54-1.68-1.79-1.68-2.79,0-1.01,.75-1.39,1.68-.85Z"/></g><path class="cls-1" d="M346.71,245.98l134.26,77.3c.93,.54,1.68,1.79,1.68,2.79s-.75,1.39-1.68,.85l-134.26-77.3c-.93-.54-1.68-1.79-1.68-2.79s.75-1.39,1.68-.85Z"/><path class="cls-1" d="M461,297.12l19.97,11.57c.93,.54,1.68,1.79,1.68,2.79s-.75,1.39-1.68,.85l-19.97-11.56c-.93-.54-1.68-1.79-1.68-2.79s.75-1.39,1.68-.85Z"/><path class="cls-1" d="M320.22,216.05l134.26,77.3c.93,.54,1.68,1.79,1.68,2.79s-.75,1.39-1.68,.85l-134.26-77.3c-.93-.54-1.68-1.79-1.68-2.79s.75-1.39,1.68-.85Z"/><g><path class="cls-19" d="M301.27,146.81l33.29,19.13c.93,.54,1.68,1.79,1.68,2.79s-.75,1.39-1.68,.85l-33.29-19.13c-.93-.54-1.68-1.79-1.68-2.79,0-1.01,.75-1.39,1.68-.85Z"/><path class="cls-10" d="M301.27,146.81l33.29,19.13c.93,.54,1.68,1.79,1.68,2.79s-.75,1.39-1.68,.85l-33.29-19.13c-.93-.54-1.68-1.79-1.68-2.79,0-1.01,.75-1.39,1.68-.85Z"/></g><g><path class="cls-19" d="M341.09,169.71l138.89,80.35c.93,.54,1.68,1.79,1.68,2.79s-.75,1.39-1.68,.85l-138.89-80.35c-.93-.54-1.68-1.79-1.68-2.79s.75-1.39,1.68-.85Z"/><path class="cls-10" d="M341.09,169.71l138.89,80.35c.93,.54,1.68,1.79,1.68,2.79s-.75,1.39-1.68,.85l-138.89-80.35c-.93-.54-1.68-1.79-1.68-2.79s.75-1.39,1.68-.85Z"/></g><path class="cls-16" d="M301.27,234.6l179.69,103.62c.93,.54,1.68,1.79,1.68,2.79s-.75,1.39-1.68,.85l-179.69-103.62c-.93-.54-1.68-1.79-1.68-2.79s.75-1.39,1.68-.85Z"/><g><path class="cls-19" d="M276.02,220.02l15.58,8.98c.93,.54,1.68,1.79,1.68,2.79s-.75,1.39-1.68,.85l-15.58-8.98c-.93-.54-1.68-1.79-1.68-2.79s.75-1.39,1.68-.85Z"/><path class="cls-6" d="M276.02,220.02l15.58,8.98c.93,.54,1.68,1.79,1.68,2.79s-.75,1.39-1.68,.85l-15.58-8.98c-.93-.54-1.68-1.79-1.68-2.79s.75-1.39,1.68-.85Z"/></g><path class="cls-16" d="M301.27,249.18l179.69,103.62c.93,.54,1.68,1.79,1.68,2.79s-.75,1.39-1.68,.85l-179.69-103.62c-.93-.54-1.68-1.79-1.68-2.79s.75-1.39,1.68-.85Z"/><g><path class="cls-19" d="M276.02,234.6l15.58,8.98c.93,.54,1.68,1.79,1.68,2.79s-.75,1.39-1.68,.85l-15.58-8.98c-.93-.54-1.68-1.79-1.68-2.79s.75-1.39,1.68-.85Z"/><path class="cls-6" d="M276.02,234.6l15.58,8.98c.93,.54,1.68,1.79,1.68,2.79s-.75,1.39-1.68,.85l-15.58-8.98c-.93-.54-1.68-1.79-1.68-2.79s.75-1.39,1.68-.85Z"/></g><path class="cls-16" d="M301.27,263.75l179.69,103.62c.93,.54,1.68,1.79,1.68,2.79s-.75,1.39-1.68,.85l-179.69-103.62c-.93-.54-1.68-1.79-1.68-2.79s.75-1.39,1.68-.85Z"/><g><path class="cls-19" d="M276.02,249.18l15.58,8.98c.93,.54,1.68,1.79,1.68,2.79s-.75,1.39-1.68,.85l-15.58-8.98c-.93-.54-1.68-1.79-1.68-2.79s.75-1.39,1.68-.85Z"/><path class="cls-6" d="M276.02,249.18l15.58,8.98c.93,.54,1.68,1.79,1.68,2.79s-.75,1.39-1.68,.85l-15.58-8.98c-.93-.54-1.68-1.79-1.68-2.79s.75-1.39,1.68-.85Z"/></g></g><g class="cls-9"><path class="cls-14" d="M251.73,88.44l9.16,5.29c.92,.53,1.66,1.82,1.66,2.88v3.37c0,1.06-.74,1.49-1.66,.96l-9.15-5.29c-.92-.53-1.66-1.82-1.66-2.88v-3.37c0-1.06,.74-1.49,1.66-.96Z"/><path class="cls-14" d="M251.73,103.16l9.16,5.29c.92,.53,1.66,1.82,1.66,2.88v3.37c0,1.06-.74,1.49-1.66,.96l-9.15-5.29c-.92-.53-1.66-1.82-1.66-2.88v-3.37c0-1.06,.74-1.49,1.66-.96Z"/><path class="cls-14" d="M251.73,117.88l9.16,5.29c.92,.53,1.66,1.82,1.66,2.88v3.37c0,1.06-.74,1.49-1.66,.96l-9.15-5.29c-.92-.53-1.66-1.82-1.66-2.88v-3.37c0-1.06,.74-1.49,1.66-.96Z"/><path class="cls-14" d="M251.73,132.6l9.16,5.29c.92,.53,1.66,1.82,1.66,2.88v3.37c0,1.06-.74,1.49-1.66,.96l-9.15-5.29c-.92-.53-1.66-1.82-1.66-2.88v-3.37c0-1.06,.74-1.49,1.66-.96Z"/><path class="cls-14" d="M251.73,147.32l9.16,5.29c.92,.53,1.66,1.82,1.66,2.88v3.37c0,1.06-.74,1.49-1.66,.96l-9.15-5.29c-.92-.53-1.66-1.82-1.66-2.88v-3.37c0-1.06,.74-1.49,1.66-.96Z"/><path class="cls-14" d="M251.73,162.04l9.16,5.29c.92,.53,1.66,1.82,1.66,2.88v3.37c0,1.06-.74,1.49-1.66,.96l-9.15-5.29c-.92-.53-1.66-1.82-1.66-2.88v-3.37c0-1.06,.74-1.49,1.66-.96Z"/><path class="cls-14" d="M251.73,176.75l9.16,5.29c.92,.53,1.66,1.82,1.66,2.88v3.37c0,1.06-.74,1.49-1.66,.96l-9.15-5.29c-.92-.53-1.66-1.82-1.66-2.88v-3.37c0-1.06,.74-1.49,1.66-.96Z"/><path class="cls-14" d="M251.73,191.47l9.16,5.29c.92,.53,1.66,1.82,1.66,2.88v3.37c0,1.06-.74,1.49-1.66,.96l-9.15-5.29c-.92-.53-1.66-1.82-1.66-2.88v-3.37c0-1.06,.74-1.49,1.66-.96Z"/><path class="cls-14" d="M251.73,206.19l9.16,5.29c.92,.53,1.66,1.82,1.66,2.88v3.37c0,1.06-.74,1.49-1.66,.96l-9.15-5.29c-.92-.53-1.66-1.82-1.66-2.88v-3.37c0-1.06,.74-1.49,1.66-.96Z"/><path class="cls-14" d="M251.73,220.91l9.16,5.29c.92,.53,1.66,1.82,1.66,2.88v3.37c0,1.06-.74,1.49-1.66,.96l-9.15-5.29c-.92-.53-1.66-1.82-1.66-2.88v-3.37c0-1.06,.74-1.49,1.66-.96Z"/><path class="cls-14" d="M251.73,235.63l9.16,5.29c.92,.53,1.66,1.82,1.66,2.88v3.37c0,1.06-.74,1.49-1.66,.96l-9.15-5.29c-.92-.53-1.66-1.82-1.66-2.88v-3.37c0-1.06,.74-1.49,1.66-.96Z"/><path class="cls-14" d="M251.73,250.35l9.16,5.29c.92,.53,1.66,1.82,1.66,2.88v3.37c0,1.06-.74,1.49-1.66,.96l-9.15-5.29c-.92-.53-1.66-1.82-1.66-2.88v-3.37c0-1.06,.74-1.49,1.66-.96Z"/></g><g><path class="cls-8" d="M191,40.63l49.51,28.58c1.84,1.06,3.33,3.64,3.33,5.76v57.17c0,2.12-1.49,2.98-3.33,1.92l-49.51-28.59c-1.84-1.06-3.33-3.64-3.33-5.76V42.55c0-2.12,1.49-2.98,3.33-1.92Z"/><g><g><path class="cls-19" d="M195.59,97.29l4.56,2.64c.93,.54,1.68,1.79,1.68,2.79s-.75,1.39-1.68,.85l-4.56-2.64c-.93-.54-1.68-1.79-1.68-2.79,0-1.01,.75-1.39,1.68-.85Z"/><path class="cls-12" d="M195.59,97.29l4.56,2.64c.93,.54,1.68,1.79,1.68,2.79s-.75,1.39-1.68,.85l-4.56-2.64c-.93-.54-1.68-1.79-1.68-2.79,0-1.01,.75-1.39,1.68-.85Z"/></g><g><path class="cls-19" d="M195.59,50.48l4.56,2.64c.93,.54,1.68,1.79,1.68,2.79s-.75,1.39-1.68,.85l-4.56-2.64c-.93-.54-1.68-1.79-1.68-2.79,0-1.01,.75-1.39,1.68-.85Z"/><path class="cls-12" d="M195.59,50.48l4.56,2.64c.93,.54,1.68,1.79,1.68,2.79s-.75,1.39-1.68,.85l-4.56-2.64c-.93-.54-1.68-1.79-1.68-2.79,0-1.01,.75-1.39,1.68-.85Z"/></g><g><path class="cls-19" d="M202,63.52l4.56,2.64c.93,.54,1.68,1.79,1.68,2.79s-.75,1.39-1.68,.85l-4.56-2.64c-.93-.54-1.68-1.79-1.68-2.79,0-1.01,.75-1.39,1.68-.85Z"/><path class="cls-12" d="M202,63.52l4.56,2.64c.93,.54,1.68,1.79,1.68,2.79s-.75,1.39-1.68,.85l-4.56-2.64c-.93-.54-1.68-1.79-1.68-2.79,0-1.01,.75-1.39,1.68-.85Z"/></g><g><path class="cls-19" d="M202,72.86l4.56,2.64c.93,.54,1.68,1.79,1.68,2.79s-.75,1.39-1.68,.85l-4.56-2.64c-.93-.54-1.68-1.79-1.68-2.79,0-1.01,.75-1.39,1.68-.85Z"/><path class="cls-12" d="M202,72.86l4.56,2.64c.93,.54,1.68,1.79,1.68,2.79s-.75,1.39-1.68,.85l-4.56-2.64c-.93-.54-1.68-1.79-1.68-2.79,0-1.01,.75-1.39,1.68-.85Z"/></g><g><path class="cls-19" d="M195.59,78.56l4.56,2.64c.93,.54,1.68,1.79,1.68,2.79s-.75,1.39-1.68,.85l-4.56-2.64c-.93-.54-1.68-1.79-1.68-2.79,0-1.01,.75-1.39,1.68-.85Z"/><path class="cls-12" d="M195.59,78.56l4.56,2.64c.93,.54,1.68,1.79,1.68,2.79s-.75,1.39-1.68,.85l-4.56-2.64c-.93-.54-1.68-1.79-1.68-2.79,0-1.01,.75-1.39,1.68-.85Z"/></g><g><path class="cls-19" d="M202,91.61l4.56,2.64c.93,.54,1.68,1.79,1.68,2.79s-.75,1.39-1.68,.85l-4.56-2.64c-.93-.54-1.68-1.79-1.68-2.79,0-1.01,.75-1.39,1.68-.85Z"/><path class="cls-12" d="M202,91.61l4.56,2.64c.93,.54,1.68,1.79,1.68,2.79s-.75,1.39-1.68,.85l-4.56-2.64c-.93-.54-1.68-1.79-1.68-2.79,0-1.01,.75-1.39,1.68-.85Z"/></g></g><g><g><path class="cls-19" d="M208.07,57.69l27.83,16.07c.93,.54,1.68,1.79,1.68,2.79s-.75,1.39-1.68,.85l-27.83-16.07c-.93-.54-1.68-1.79-1.68-2.79s.75-1.39,1.68-.85Z"/><path class="cls-12" d="M208.07,57.69l27.83,16.07c.93,.54,1.68,1.79,1.68,2.79s-.75,1.39-1.68,.85l-27.83-16.07c-.93-.54-1.68-1.79-1.68-2.79s.75-1.39,1.68-.85Z"/></g><g><path class="cls-19" d="M208.07,104.5l27.83,16.07c.93,.54,1.68,1.79,1.68,2.79s-.75,1.39-1.68,.85l-27.83-16.07c-.93-.54-1.68-1.79-1.68-2.79s.75-1.39,1.68-.85Z"/><path class="cls-12" d="M208.07,104.5l27.83,16.07c.93,.54,1.68,1.79,1.68,2.79s-.75,1.39-1.68,.85l-27.83-16.07c-.93-.54-1.68-1.79-1.68-2.79s.75-1.39,1.68-.85Z"/></g><g><path class="cls-19" d="M214.48,70.73l21.43,12.4c.93,.54,1.68,1.79,1.68,2.79s-.75,1.39-1.68,.85l-21.43-12.4c-.93-.54-1.68-1.79-1.68-2.79,0-1.01,.75-1.39,1.68-.85Z"/><path class="cls-12" d="M214.48,70.73l21.43,12.4c.93,.54,1.68,1.79,1.68,2.79s-.75,1.39-1.68,.85l-21.43-12.4c-.93-.54-1.68-1.79-1.68-2.79,0-1.01,.75-1.39,1.68-.85Z"/></g><g><path class="cls-19" d="M214.48,80.09l21.43,12.4c.93,.54,1.68,1.79,1.68,2.79s-.75,1.39-1.68,.85l-21.43-12.4c-.93-.54-1.68-1.79-1.68-2.79,0-1.01,.75-1.39,1.68-.85Z"/><path class="cls-12" d="M214.48,80.09l21.43,12.4c.93,.54,1.68,1.79,1.68,2.79s-.75,1.39-1.68,.85l-21.43-12.4c-.93-.54-1.68-1.79-1.68-2.79,0-1.01,.75-1.39,1.68-.85Z"/></g><g><path class="cls-19" d="M208.07,85.78l27.83,16.07c.93,.54,1.68,1.79,1.68,2.79s-.75,1.39-1.68,.85l-27.83-16.07c-.93-.54-1.68-1.79-1.68-2.79s.75-1.39,1.68-.85Z"/><path class="cls-12" d="M208.07,85.78l27.83,16.07c.93,.54,1.68,1.79,1.68,2.79s-.75,1.39-1.68,.85l-27.83-16.07c-.93-.54-1.68-1.79-1.68-2.79s.75-1.39,1.68-.85Z"/></g><g><path class="cls-19" d="M214.48,98.82l21.43,12.39c.93,.54,1.68,1.79,1.68,2.79s-.75,1.39-1.68,.85l-21.43-12.39c-.93-.54-1.68-1.79-1.68-2.79,0-1.01,.75-1.39,1.68-.85Z"/><path class="cls-12" d="M214.48,98.82l21.43,12.39c.93,.54,1.68,1.79,1.68,2.79s-.75,1.39-1.68,.85l-21.43-12.39c-.93-.54-1.68-1.79-1.68-2.79,0-1.01,.75-1.39,1.68-.85Z"/></g></g></g><g><path class="cls-8" d="M191,116.23l49.51,28.58c1.84,1.06,3.33,3.64,3.33,5.76v112.96c0,2.12-1.49,2.98-3.33,1.92l-49.51-28.59c-1.84-1.06-3.33-3.64-3.33-5.76V118.15c0-2.12,1.49-2.98,3.33-1.92Z"/><g><g><path class="cls-19" d="M195.59,126.08l4.56,2.64c.93,.54,1.68,1.79,1.68,2.79s-.75,1.39-1.68,.85l-4.56-2.64c-.93-.54-1.68-1.79-1.68-2.79,0-1.01,.75-1.39,1.68-.85Z"/><path class="cls-12" d="M195.59,126.08l4.56,2.64c.93,.54,1.68,1.79,1.68,2.79s-.75,1.39-1.68,.85l-4.56-2.64c-.93-.54-1.68-1.79-1.68-2.79,0-1.01,.75-1.39,1.68-.85Z"/></g><g><path class="cls-19" d="M202,139.12l4.56,2.64c.93,.54,1.68,1.79,1.68,2.79s-.75,1.39-1.68,.85l-4.56-2.64c-.93-.54-1.68-1.79-1.68-2.79,0-1.01,.75-1.39,1.68-.85Z"/><path class="cls-12" d="M202,139.12l4.56,2.64c.93,.54,1.68,1.79,1.68,2.79s-.75,1.39-1.68,.85l-4.56-2.64c-.93-.54-1.68-1.79-1.68-2.79,0-1.01,.75-1.39,1.68-.85Z"/></g><g><path class="cls-19" d="M202,148.46l4.56,2.64c.93,.54,1.68,1.79,1.68,2.79s-.75,1.39-1.68,.85l-4.56-2.64c-.93-.54-1.68-1.79-1.68-2.79,0-1.01,.75-1.39,1.68-.85Z"/><path class="cls-12" d="M202,148.46l4.56,2.64c.93,.54,1.68,1.79,1.68,2.79s-.75,1.39-1.68,.85l-4.56-2.64c-.93-.54-1.68-1.79-1.68-2.79,0-1.01,.75-1.39,1.68-.85Z"/></g><g><path class="cls-19" d="M195.59,154.17l4.56,2.64c.93,.54,1.68,1.79,1.68,2.79s-.75,1.39-1.68,.85l-4.56-2.64c-.93-.54-1.68-1.79-1.68-2.79,0-1.01,.75-1.39,1.68-.85Z"/><path class="cls-12" d="M195.59,154.17l4.56,2.64c.93,.54,1.68,1.79,1.68,2.79s-.75,1.39-1.68,.85l-4.56-2.64c-.93-.54-1.68-1.79-1.68-2.79,0-1.01,.75-1.39,1.68-.85Z"/></g></g><g><g><path class="cls-19" d="M208.07,133.29l27.83,16.07c.93,.54,1.68,1.79,1.68,2.79s-.75,1.39-1.68,.85l-27.83-16.07c-.93-.54-1.68-1.79-1.68-2.79s.75-1.39,1.68-.85Z"/><path class="cls-12" d="M208.07,133.29l27.83,16.07c.93,.54,1.68,1.79,1.68,2.79s-.75,1.39-1.68,.85l-27.83-16.07c-.93-.54-1.68-1.79-1.68-2.79s.75-1.39,1.68-.85Z"/></g><g><path class="cls-19" d="M214.48,146.33l21.43,12.4c.93,.54,1.68,1.79,1.68,2.79s-.75,1.39-1.68,.85l-21.43-12.4c-.93-.54-1.68-1.79-1.68-2.79,0-1.01,.75-1.39,1.68-.85Z"/><path class="cls-12" d="M214.48,146.33l21.43,12.4c.93,.54,1.68,1.79,1.68,2.79s-.75,1.39-1.68,.85l-21.43-12.4c-.93-.54-1.68-1.79-1.68-2.79,0-1.01,.75-1.39,1.68-.85Z"/></g><g><path class="cls-19" d="M214.48,155.7l21.43,12.4c.93,.54,1.68,1.79,1.68,2.79s-.75,1.39-1.68,.85l-21.43-12.4c-.93-.54-1.68-1.79-1.68-2.79,0-1.01,.75-1.39,1.68-.85Z"/><path class="cls-12" d="M214.48,155.7l21.43,12.4c.93,.54,1.68,1.79,1.68,2.79s-.75,1.39-1.68,.85l-21.43-12.4c-.93-.54-1.68-1.79-1.68-2.79,0-1.01,.75-1.39,1.68-.85Z"/></g><g><path class="cls-19" d="M208.07,161.38l27.83,16.07c.93,.54,1.68,1.79,1.68,2.79s-.75,1.39-1.68,.85l-27.83-16.07c-.93-.54-1.68-1.79-1.68-2.79s.75-1.39,1.68-.85Z"/><path class="cls-12" d="M208.07,161.38l27.83,16.07c.93,.54,1.68,1.79,1.68,2.79s-.75,1.39-1.68,.85l-27.83-16.07c-.93-.54-1.68-1.79-1.68-2.79s.75-1.39,1.68-.85Z"/></g><g><path class="cls-19" d="M202,167.27l4.56,2.64c.93,.54,1.68,1.79,1.68,2.79s-.75,1.39-1.68,.85l-4.56-2.64c-.93-.54-1.68-1.79-1.68-2.79,0-1.01,.75-1.39,1.68-.85Z"/><path class="cls-12" d="M202,167.27l4.56,2.64c.93,.54,1.68,1.79,1.68,2.79s-.75,1.39-1.68,.85l-4.56-2.64c-.93-.54-1.68-1.79-1.68-2.79,0-1.01,.75-1.39,1.68-.85Z"/></g><g><path class="cls-19" d="M202,176.61l4.56,2.64c.93,.54,1.68,1.79,1.68,2.79s-.75,1.39-1.68,.85l-4.56-2.64c-.93-.54-1.68-1.79-1.68-2.79,0-1.01,.75-1.39,1.68-.85Z"/><path class="cls-12" d="M202,176.61l4.56,2.64c.93,.54,1.68,1.79,1.68,2.79s-.75,1.39-1.68,.85l-4.56-2.64c-.93-.54-1.68-1.79-1.68-2.79,0-1.01,.75-1.39,1.68-.85Z"/></g><g><path class="cls-19" d="M214.48,174.48l21.43,12.4c.93,.54,1.68,1.79,1.68,2.79s-.75,1.39-1.68,.85l-21.43-12.4c-.93-.54-1.68-1.79-1.68-2.79,0-1.01,.75-1.39,1.68-.85Z"/><path class="cls-12" d="M214.48,174.48l21.43,12.4c.93,.54,1.68,1.79,1.68,2.79s-.75,1.39-1.68,.85l-21.43-12.4c-.93-.54-1.68-1.79-1.68-2.79,0-1.01,.75-1.39,1.68-.85Z"/></g><g><path class="cls-19" d="M214.48,183.84l21.43,12.4c.93,.54,1.68,1.79,1.68,2.79s-.75,1.39-1.68,.85l-21.43-12.4c-.93-.54-1.68-1.79-1.68-2.79,0-1.01,.75-1.39,1.68-.85Z"/><path class="cls-12" d="M214.48,183.84l21.43,12.4c.93,.54,1.68,1.79,1.68,2.79s-.75,1.39-1.68,.85l-21.43-12.4c-.93-.54-1.68-1.79-1.68-2.79,0-1.01,.75-1.39,1.68-.85Z"/></g><g><path class="cls-19" d="M195.59,201.09l4.56,2.64c.93,.54,1.68,1.79,1.68,2.79s-.75,1.39-1.68,.85l-4.56-2.64c-.93-.54-1.68-1.79-1.68-2.79,0-1.01,.75-1.39,1.68-.85Z"/><path class="cls-12" d="M195.59,201.09l4.56,2.64c.93,.54,1.68,1.79,1.68,2.79s-.75,1.39-1.68,.85l-4.56-2.64c-.93-.54-1.68-1.79-1.68-2.79,0-1.01,.75-1.39,1.68-.85Z"/></g><g><path class="cls-19" d="M208.07,208.31l27.83,16.07c.93,.54,1.68,1.79,1.68,2.79s-.75,1.39-1.68,.85l-27.83-16.07c-.93-.54-1.68-1.79-1.68-2.79s.75-1.39,1.68-.85Z"/><path class="cls-12" d="M208.07,208.31l27.83,16.07c.93,.54,1.68,1.79,1.68,2.79s-.75,1.39-1.68,.85l-27.83-16.07c-.93-.54-1.68-1.79-1.68-2.79s.75-1.39,1.68-.85Z"/></g><g><path class="cls-19" d="M202,214.2l4.56,2.64c.93,.54,1.68,1.79,1.68,2.79s-.75,1.39-1.68,.85l-4.56-2.64c-.93-.54-1.68-1.79-1.68-2.79,0-1.01,.75-1.39,1.68-.85Z"/><path class="cls-12" d="M202,214.2l4.56,2.64c.93,.54,1.68,1.79,1.68,2.79s-.75,1.39-1.68,.85l-4.56-2.64c-.93-.54-1.68-1.79-1.68-2.79,0-1.01,.75-1.39,1.68-.85Z"/></g><g><path class="cls-19" d="M202,223.54l4.56,2.64c.93,.54,1.68,1.79,1.68,2.79s-.75,1.39-1.68,.85l-4.56-2.64c-.93-.54-1.68-1.79-1.68-2.79,0-1.01,.75-1.39,1.68-.85Z"/><path class="cls-12" d="M202,223.54l4.56,2.64c.93,.54,1.68,1.79,1.68,2.79s-.75,1.39-1.68,.85l-4.56-2.64c-.93-.54-1.68-1.79-1.68-2.79,0-1.01,.75-1.39,1.68-.85Z"/></g><g><path class="cls-19" d="M214.48,221.41l21.43,12.4c.93,.54,1.68,1.79,1.68,2.79s-.75,1.39-1.68,.85l-21.43-12.4c-.93-.54-1.68-1.79-1.68-2.79,0-1.01,.75-1.39,1.68-.85Z"/><path class="cls-12" d="M214.48,221.41l21.43,12.4c.93,.54,1.68,1.79,1.68,2.79s-.75,1.39-1.68,.85l-21.43-12.4c-.93-.54-1.68-1.79-1.68-2.79,0-1.01,.75-1.39,1.68-.85Z"/></g><g><path class="cls-19" d="M214.48,230.77l21.43,12.4c.93,.54,1.68,1.79,1.68,2.79s-.75,1.39-1.68,.85l-21.43-12.4c-.93-.54-1.68-1.79-1.68-2.79,0-1.01,.75-1.39,1.68-.85Z"/><path class="cls-12" d="M214.48,230.77l21.43,12.4c.93,.54,1.68,1.79,1.68,2.79s-.75,1.39-1.68,.85l-21.43-12.4c-.93-.54-1.68-1.79-1.68-2.79,0-1.01,.75-1.39,1.68-.85Z"/></g><g><path class="cls-19" d="M202,185.9l4.56,2.64c.93,.54,1.68,1.79,1.68,2.79s-.75,1.39-1.68,.85l-4.56-2.64c-.93-.54-1.68-1.79-1.68-2.79,0-1.01,.75-1.39,1.68-.85Z"/><path class="cls-12" d="M202,185.9l4.56,2.64c.93,.54,1.68,1.79,1.68,2.79s-.75,1.39-1.68,.85l-4.56-2.64c-.93-.54-1.68-1.79-1.68-2.79,0-1.01,.75-1.39,1.68-.85Z"/></g><g><path class="cls-19" d="M195.59,191.6l4.56,2.64c.93,.54,1.68,1.79,1.68,2.79s-.75,1.39-1.68,.85l-4.56-2.64c-.93-.54-1.68-1.79-1.68-2.79,0-1.01,.75-1.39,1.68-.85Z"/><path class="cls-12" d="M195.59,191.6l4.56,2.64c.93,.54,1.68,1.79,1.68,2.79s-.75,1.39-1.68,.85l-4.56-2.64c-.93-.54-1.68-1.79-1.68-2.79,0-1.01,.75-1.39,1.68-.85Z"/></g><g><path class="cls-19" d="M214.48,193.13l21.43,12.4c.93,.54,1.68,1.79,1.68,2.79s-.75,1.39-1.68,.85l-21.43-12.4c-.93-.54-1.68-1.79-1.68-2.79,0-1.01,.75-1.39,1.68-.85Z"/><path class="cls-12" d="M214.48,193.13l21.43,12.4c.93,.54,1.68,1.79,1.68,2.79s-.75,1.39-1.68,.85l-21.43-12.4c-.93-.54-1.68-1.79-1.68-2.79,0-1.01,.75-1.39,1.68-.85Z"/></g><g><path class="cls-19" d="M208.07,198.82l27.83,16.07c.93,.54,1.68,1.79,1.68,2.79s-.75,1.39-1.68,.85l-27.83-16.07c-.93-.54-1.68-1.79-1.68-2.79s.75-1.39,1.68-.85Z"/><path class="cls-12" d="M208.07,198.82l27.83,16.07c.93,.54,1.68,1.79,1.68,2.79s-.75,1.39-1.68,.85l-27.83-16.07c-.93-.54-1.68-1.79-1.68-2.79s.75-1.39,1.68-.85Z"/></g><g><path class="cls-19" d="M195.59,229.37l4.56,2.64c.93,.54,1.68,1.79,1.68,2.79s-.75,1.39-1.68,.85l-4.56-2.64c-.93-.54-1.68-1.79-1.68-2.79,0-1.01,.75-1.39,1.68-.85Z"/><path class="cls-12" d="M195.59,229.37l4.56,2.64c.93,.54,1.68,1.79,1.68,2.79s-.75,1.39-1.68,.85l-4.56-2.64c-.93-.54-1.68-1.79-1.68-2.79,0-1.01,.75-1.39,1.68-.85Z"/></g><g><path class="cls-19" d="M208.07,236.59l27.83,16.07c.93,.54,1.68,1.79,1.68,2.79s-.75,1.39-1.68,.85l-27.83-16.07c-.93-.54-1.68-1.79-1.68-2.79s.75-1.39,1.68-.85Z"/><path class="cls-12" d="M208.07,236.59l27.83,16.07c.93,.54,1.68,1.79,1.68,2.79s-.75,1.39-1.68,.85l-27.83-16.07c-.93-.54-1.68-1.79-1.68-2.79s.75-1.39,1.68-.85Z"/></g></g></g></g></g><g id="Window-3"><g><g class="cls-13"><path class="cls-11" d="M466.47,275.03v185.37c0,2.46,1.73,5.45,3.85,6.67l106.49,61.44c.44,.25,.88,.38,1.28,.37,.16,0,.33-.03,.49-.06,.11-.03,.23-.06,.33-.11,.08-.04,.14-.08,.2-.11,.08-.05,.15-.1,.23-.15,.08-.06,.15-.11,.21-.19,.3-.28,.53-.62,.71-1.01,.25-.57,.4-1.24,.4-1.95v-184.43c0-2.45-1.73-5.45-3.85-6.67l-106.49-61.38c-1-.57-1.9-.66-2.59-.33-.11,.05-.23,.11-.33,.19l-.03,.03c-.1,.08-.18,.15-.25,.25-.05,.04-.08,.09-.11,.14-.05,.06-.1,.13-.13,.2-.1,.15-.18,.32-.23,.49-.04,.1-.08,.21-.09,.34-.01,.03-.03,.05-.01,.08-.04,.11-.05,.23-.06,.35-.01,.15-.03,.32-.03,.48Z"/></g><g><path class="cls-19" d="M467.74,272.47c.69-.33,1.59-.24,2.59,.33l106.49,61.38c2.12,1.23,3.85,4.22,3.85,6.67v12.58l6.14-3.55v-12.5c0-2.45-1.72-5.43-3.84-6.66l-106.51-61.38c-1.1-.64-2.08-.66-2.79-.23-.69,.42-5.11,2.92-5.93,3.35Z"/><path class="cls-19" d="M466.48,275c.02-2.43,1.73-3.41,3.85-2.19l106.49,61.38c2.13,1.23,3.85,4.21,3.85,6.67v12.59l-114.19-65.81v-12.63Z"/><g class="cls-5"><path class="cls-14" d="M470.33,272.81l106.49,61.38c1.05,.62,2.02,1.66,2.71,2.86l6.11-3.5c-.69-1.19-1.64-2.22-2.68-2.81l-106.5-61.38c-1.1-.64-2.08-.65-2.8-.23-.69,.42-5.11,2.91-5.92,3.34,.68-.33,1.59-.23,2.58,.34Z"/></g><path class="cls-17" d="M586.82,349.91v-12.51c0-1.25-.46-2.63-1.17-3.85l-6.12,3.49c.71,1.21,1.15,2.58,1.15,3.83v12.59l6.15-3.54Z"/></g><g><path class="cls-11" d="M575.07,339.36c1.2,.69,2.18,2.75,2.18,4.6s-.97,2.79-2.18,2.09c-1.2-.69-2.17-2.75-2.17-4.6s.97-2.79,2.17-2.09Z"/><path class="cls-11" d="M567.24,334.84c1.2,.69,2.17,2.75,2.17,4.6s-.97,2.79-2.17,2.09c-1.2-.69-2.17-2.75-2.17-4.6s.97-2.79,2.17-2.09Z"/><path class="cls-11" d="M559.41,330.31c1.2,.69,2.17,2.75,2.17,4.6s-.97,2.79-2.17,2.09c-1.2-.69-2.17-2.75-2.17-4.6s.97-2.79,2.17-2.09Z"/></g><g class="cls-3"><path class="cls-8" d="M579.26,528.52c.14-.09,.3-.18,.48-.28,.35-.21,.76-.44,1.19-.67h.01c.21-.14,.43-.27,.64-.38,.01-.01,.04-.03,.05-.03,.35-.2,.7-.4,1.01-.58,.33-.19,1.84-1.02,2.07-1.15,.23-.14,.4-.23,.48-.27,.24-.13,.47-.3,.66-.53,.2-.22,.38-.48,.52-.78,.28-.58,.44-1.29,.44-2.03v-171.94l-6.14,3.55v171.85c-.04,.76-.18,1.4-.4,1.95-.18,.39-.4,.73-.71,1.01-.05,.08-.13,.14-.21,.19-.03,.04-.05,.06-.09,.09Z"/></g></g><g><g><path class="cls-19" d="M475.32,308.9c0-.23,.07-.4,.2-.49l2.77-2.53s.09-.04,.13-.02c.04,.01,.06,.02,.07,.03,.08,.05,.16,.14,.22,.27,.06,.13,.09,.26,.09,.39v1.92c0,.24-.02,.42-.06,.53-.04,.11-.1,.21-.2,.3l-1.46,1.34,1.46,3.03c.09,.2,.16,.37,.2,.52,.04,.15,.06,.35,.06,.6v1.92c0,.13-.03,.22-.09,.28-.06,.06-.13,.06-.22,.02,0,0-.03-.02-.07-.05-.04-.03-.08-.09-.13-.17l-2.77-5.73c-.13-.25-.2-.49-.2-.72v-1.43Z"/><path class="cls-19" d="M485.45,306.23c.05-.13,.12-.24,.21-.32,.09-.08,.23-.07,.41,.03l1.04,.6c.08,.05,.16,.14,.22,.27,.06,.13,.09,.26,.09,.39,0,.06,0,.12-.03,.18l-4.75,14.75c-.04,.12-.1,.23-.2,.32-.09,.09-.23,.08-.42-.03l-1-.58c-.08-.05-.16-.14-.22-.27-.06-.13-.09-.26-.09-.39,0-.06,0-.12,.03-.18l4.7-14.77Z"/><path class="cls-19" d="M492.79,320.41c0,.23-.07,.39-.2,.49l-2.77,2.53s-.09,.04-.13,.02c-.04-.01-.06-.02-.07-.03-.08-.05-.16-.14-.22-.27-.06-.13-.09-.26-.09-.39v-1.92c0-.25,.02-.42,.06-.53,.04-.11,.1-.21,.2-.3l1.46-1.34-1.46-3.03c-.09-.2-.16-.37-.2-.52-.04-.15-.06-.35-.06-.59v-1.93c0-.13,.03-.22,.09-.28,.06-.06,.13-.06,.22-.01,0,0,.03,.02,.07,.05,.04,.03,.08,.09,.13,.17l2.77,5.73c.13,.25,.2,.49,.2,.72v1.43Z"/><path class="cls-19" d="M500.48,327.97c.1,.06,.19,.17,.27,.33,.07,.16,.11,.32,.11,.48v2.12c0,.16-.04,.27-.11,.35-.08,.07-.17,.08-.27,.02l-1.31-.75c-.1-.06-.19-.17-.27-.33-.08-.16-.11-.32-.11-.48v-2.12c0-.16,.04-.27,.11-.35,.07-.07,.16-.08,.27-.02l1.31,.75Z"/><path class="cls-19" d="M504.85,330.49c.1,.06,.19,.17,.27,.33,.08,.16,.11,.32,.11,.48v2.12c0,.16-.04,.27-.11,.35-.08,.07-.16,.08-.27,.02l-1.31-.76c-.1-.06-.19-.17-.27-.33-.08-.16-.11-.32-.11-.48v-2.12c0-.16,.04-.27,.11-.35,.08-.07,.16-.08,.27-.02l1.31,.76Z"/><path class="cls-19" d="M509.22,333.01c.1,.06,.19,.17,.27,.33,.07,.16,.11,.32,.11,.48v2.12c0,.16-.04,.27-.11,.35-.08,.07-.17,.08-.27,.02l-1.31-.75c-.1-.06-.19-.17-.27-.33-.07-.16-.11-.32-.11-.48v-2.12c0-.16,.04-.27,.11-.35,.07-.07,.16-.08,.27-.02l1.31,.75Z"/></g><path class="cls-19" d="M476.49,325.7l63.99,36.94c.76,.44,1.37,1.45,1.37,2.27s-.61,1.13-1.37,.69l-63.99-36.94c-.76-.44-1.37-1.45-1.37-2.27,0-.82,.61-1.13,1.37-.69Z"/><path class="cls-16" d="M497.02,373.11l63.99,36.94c.76,.44,1.37,1.45,1.37,2.27s-.61,1.13-1.37,.69l-63.99-36.94c-.76-.44-1.37-1.45-1.37-2.27s.61-1.13,1.37-.69Z"/><path class="cls-16" d="M497.02,396.81l30.63,17.69c.76,.44,1.37,1.45,1.37,2.27s-.61,1.13-1.37,.69l-30.63-17.69c-.76-.44-1.37-1.45-1.37-2.27s.61-1.13,1.37-.69Z"/><path class="cls-19" d="M545.77,365.7l25.49,14.66c.76,.44,1.37,1.45,1.37,2.27s-.61,1.13-1.37,.69l-25.49-14.66c-.76-.44-1.37-1.45-1.37-2.27s.61-1.13,1.37-.69Z"/><path class="cls-19" d="M476.49,456.06l63.99,36.94c.76,.44,1.37,1.45,1.37,2.27s-.61,1.13-1.37,.69l-63.99-36.94c-.76-.44-1.37-1.45-1.37-2.27,0-.82,.61-1.13,1.37-.69Z"/><path class="cls-19" d="M545.77,496.07l25.49,14.66c.76,.44,1.37,1.45,1.37,2.27s-.61,1.13-1.37,.69l-25.49-14.66c-.76-.44-1.37-1.45-1.37-2.27s.61-1.13,1.37-.69Z"/><path class="cls-19" d="M545.77,460.57l25.49,14.66c.76,.44,1.37,1.45,1.37,2.27s-.61,1.13-1.37,.69l-25.49-14.66c-.76-.44-1.37-1.45-1.37-2.27s.61-1.13,1.37-.69Z"/><path class="cls-19" d="M545.77,472.42l25.49,14.66c.76,.44,1.37,1.45,1.37,2.27s-.61,1.13-1.37,.69l-25.49-14.66c-.76-.44-1.37-1.45-1.37-2.27s.61-1.13,1.37-.69Z"/><path class="cls-19" d="M524.04,447.99l14.32,8.27c.76,.44,1.37,1.45,1.37,2.27s-.61,1.13-1.37,.69l-14.32-8.27c-.76-.44-1.37-1.45-1.37-2.27s.61-1.13,1.37-.69Z"/><g><path class="cls-19" d="M476.49,337.57l37.32,21.53c.76,.44,1.37,1.45,1.37,2.27s-.61,1.13-1.37,.69l-37.32-21.53c-.76-.44-1.37-1.45-1.37-2.27,0-.82,.61-1.13,1.37-.69Z"/><path class="cls-10" d="M476.49,337.57l37.32,21.53c.76,.44,1.37,1.45,1.37,2.27s-.61,1.13-1.37,.69l-37.32-21.53c-.76-.44-1.37-1.45-1.37-2.27,0-.82,.61-1.13,1.37-.69Z"/></g><g><path class="cls-19" d="M476.49,349.41l12.66,7.3c.76,.44,1.37,1.45,1.37,2.27s-.61,1.13-1.37,.69l-12.66-7.3c-.76-.44-1.37-1.45-1.37-2.27,0-.82,.61-1.13,1.37-.69Z"/><path class="cls-6" d="M476.49,349.41l12.66,7.3c.76,.44,1.37,1.45,1.37,2.27s-.61,1.13-1.37,.69l-12.66-7.3c-.76-.44-1.37-1.45-1.37-2.27s.61-1.13,1.37-.69Z"/></g><g><path class="cls-19" d="M476.49,361.26l12.66,7.3c.76,.44,1.37,1.45,1.37,2.27s-.61,1.13-1.37,.69l-12.66-7.3c-.76-.44-1.37-1.45-1.37-2.27,0-.82,.61-1.13,1.37-.69Z"/><path class="cls-6" d="M476.49,361.26l12.66,7.3c.76,.44,1.37,1.45,1.37,2.27s-.61,1.13-1.37,.69l-12.66-7.3c-.76-.44-1.37-1.45-1.37-2.27s.61-1.13,1.37-.69Z"/></g><path class="cls-19" d="M476.49,373.11l12.66,7.3c.76,.44,1.37,1.45,1.37,2.27s-.61,1.13-1.37,.69l-12.66-7.3c-.76-.44-1.37-1.45-1.37-2.27,0-.82,.61-1.13,1.37-.69Z"/><path class="cls-6" d="M476.49,373.11l12.66,7.3c.76,.44,1.37,1.45,1.37,2.27s-.61,1.13-1.37,.69l-12.66-7.3c-.76-.44-1.37-1.45-1.37-2.27s.61-1.13,1.37-.69Z"/><path class="cls-19" d="M497.02,384.96l37.32,21.53c.76,.44,1.37,1.45,1.37,2.27s-.61,1.13-1.37,.69l-37.32-21.53c-.76-.44-1.37-1.45-1.37-2.27s.61-1.13,1.37-.69Z"/><path class="cls-19" d="M539.64,409.55l16.23,9.4c.76,.44,1.37,1.45,1.37,2.27s-.61,1.13-1.37,.69l-16.23-9.4c-.76-.44-1.37-1.45-1.37-2.27,0-.82,.61-1.13,1.37-.69Z"/><path class="cls-10" d="M497.02,384.96l37.32,21.53c.76,.44,1.37,1.45,1.37,2.27s-.61,1.13-1.37,.69l-37.32-21.53c-.76-.44-1.37-1.45-1.37-2.27s.61-1.13,1.37-.69Z"/><path class="cls-10" d="M539.64,409.55l16.23,9.4c.76,.44,1.37,1.45,1.37,2.27s-.61,1.13-1.37,.69l-16.23-9.4c-.76-.44-1.37-1.45-1.37-2.27,0-.82,.61-1.13,1.37-.69Z"/><g><path class="cls-19" d="M476.49,384.96l12.66,7.3c.76,.44,1.37,1.45,1.37,2.27s-.61,1.13-1.37,.69l-12.66-7.3c-.76-.44-1.37-1.45-1.37-2.27,0-.82,.61-1.13,1.37-.69Z"/><path class="cls-6" d="M476.49,384.96l12.66,7.3c.76,.44,1.37,1.45,1.37,2.27s-.61,1.13-1.37,.69l-12.66-7.3c-.76-.44-1.37-1.45-1.37-2.27s.61-1.13,1.37-.69Z"/></g><g><path class="cls-19" d="M519.11,362.17l16.23,9.4c.76,.44,1.37,1.45,1.37,2.27s-.61,1.13-1.37,.69l-16.23-9.4c-.76-.44-1.37-1.45-1.37-2.27s.61-1.13,1.37-.69Z"/><path class="cls-10" d="M519.11,362.17l16.23,9.4c.76,.44,1.37,1.45,1.37,2.27s-.61,1.13-1.37,.69l-16.23-9.4c-.76-.44-1.37-1.45-1.37-2.27s.61-1.13,1.37-.69Z"/></g><path class="cls-1" d="M512.41,417.54l37.32,21.53c.76,.44,1.37,1.45,1.37,2.27s-.61,1.13-1.37,.69l-37.32-21.53c-.76-.44-1.37-1.45-1.37-2.27s.61-1.13,1.37-.69Z"/><path class="cls-1" d="M533.95,441.87l37.32,21.53c.76,.44,1.37,1.45,1.37,2.27s-.61,1.13-1.37,.69l-37.32-21.53c-.76-.44-1.37-1.45-1.37-2.27,0-.82,.61-1.13,1.37-.69Z"/><path class="cls-1" d="M555.04,442.13l16.23,9.4c.76,.44,1.37,1.45,1.37,2.27s-.61,1.13-1.37,.69l-16.23-9.4c-.76-.44-1.37-1.45-1.37-2.27,0-.82,.61-1.13,1.37-.69Z"/><path class="cls-16" d="M555.04,489.07l16.23,9.4c.76,.44,1.37,1.45,1.37,2.27s-.61,1.13-1.37,.69l-16.23-9.4c-.76-.44-1.37-1.45-1.37-2.27,0-.82,.61-1.13,1.37-.69Z"/><g><path class="cls-19" d="M497.02,361.26l37.32,21.53c.76,.44,1.37,1.45,1.37,2.27s-.61,1.13-1.37,.69l-37.32-21.53c-.76-.44-1.37-1.45-1.37-2.27s.61-1.13,1.37-.69Z"/><path class="cls-10" d="M497.02,361.26l37.32,21.53c.76,.44,1.37,1.45,1.37,2.27s-.61,1.13-1.37,.69l-37.32-21.53c-.76-.44-1.37-1.45-1.37-2.27s.61-1.13,1.37-.69Z"/></g><g><path class="cls-19" d="M539.64,385.85l16.23,9.4c.76,.44,1.37,1.45,1.37,2.27s-.61,1.13-1.37,.69l-16.23-9.4c-.76-.44-1.37-1.45-1.37-2.27,0-.82,.61-1.13,1.37-.69Z"/><path class="cls-10" d="M539.64,385.85l16.23,9.4c.76,.44,1.37,1.45,1.37,2.27s-.61,1.13-1.37,.69l-16.23-9.4c-.76-.44-1.37-1.45-1.37-2.27,0-.82,.61-1.13,1.37-.69Z"/></g></g></g><g id="Mouse"><path class="cls-17" d="M285.25,521.64l22.87,13.21c7.21,4.16,18.51,3.57,25.24-1.33l37.73-27.55c6.73-4.9,6.35-12.25-.85-16.42l-11.47-6.65c-7.2-4.17-19.07-4.53-26.52-.8l-46.58,25.26c-7.44,3.73-7.63,10.13-.42,14.29Z"/><path class="cls-8" d="M371.72,493.99l-26.11,20.41-19.26,15.07c-1.87,.87-4.01,1.36-6.15,1.48-3.26,.18-6.57-.45-9.13-1.93l-20.47-11.82s-.03,0-.03-.03c-.04-.02-.08-.04-.12-.07-7.18-4.18-8.88-13.89-4.14-20.71,.2-.28,.4-.56,.61-.84,3.89-5.25,9.68-9.04,16.46-10.43l10.37-2.08c16.79-3.41,30.57-5.06,32.17-3.98l25.65,14.86c.06,0,.12,.03,.15,.06Z"/><path class="cls-15" d="M357.13,505.41l1.47-1.15-23.02-13.29,20.14-6.23c-.7-.4-1.38-.79-2.04-1.18l-20.14,6.23-13.73-7.93c-.86,.16-1.73,.32-2.6,.49l39.92,23.05Z"/><path class="cls-4" d="M328.61,528.24s.09-.06,.12-.09c0-.03,.03-.03,.03-.03l18.33-13.23,24.75-17.88v-2.8c0-.09-.03-.15-.12-.21-.03-.03-.09-.06-.15-.06-1.84-.63-12.57,2.59-25.53,7.75l-8.59,3.41c-2.68,1.06-5.15,2.53-7.33,4.34-6.18,5.09-9.92,12.78-9.92,21.07v.45c2.14-.12,4.28-.6,6.15-1.48l2.26-1.24Z"/></g></g></svg>