<?xml version="1.0" encoding="UTF-8"?><svg id="Capa_1" xmlns="http://www.w3.org/2000/svg" viewBox="0 0 396 389.92"><defs><style>.cls-1{fill:#19e003;}</style></defs><path class="cls-1" d="M235.15,288.15c3.66-.59,7.17-.97,10.59-1.74,7.07-1.59,14.23-2.97,21.13-5.17,32.36-10.3,50.28-33.02,55.69-66.06,2.38-14.53,3.18-29.13,.22-43.74-2.46-12.16-7.71-22.99-15.67-32.45-1.91-2.27-2.47-4.15-1.58-7.14,4.67-15.61,3.08-31.02-2.01-46.27-.84-2.51-2.37-3.92-4.89-3.41-7.21,1.46-14.74,2.26-21.47,4.98-8.72,3.54-16.91,8.49-25.09,13.24-3.03,1.76-5.52,2.42-9.05,1.56-30.04-7.33-60.14-7.27-90.17,.15-3.05,.75-5.26,.25-7.82-1.39-12.89-8.25-26.1-15.87-41.6-18.2-1.02-.15-2.06-.22-3.08-.38-4.31-.68-6.72,.8-8.05,5.31-4.47,15.12-5.61,30.18-1.16,45.51,.43,1.49-.14,3.87-1.15,5.09-14.77,17.99-19.88,38.78-17.69,61.52,.9,9.39,2.07,18.91,4.55,27.97,7.11,25.98,23.69,43.78,49.19,52.53,9.6,3.3,19.79,4.87,29.73,7.18,1.68,.39,3.41,.58,5.83,.97-6.9,7.32-10.11,15.61-11.74,24.67-.2,1.12-1.67,2.41-2.85,2.89-21.44,8.75-41.51,4.49-54.32-16.47-6.6-10.79-15.2-18.97-28.15-21.19-2.82-.48-5.92-.19-8.73,.45-3.71,.86-4.32,3.28-1.79,6.24,1.43,1.67,3.11,3.27,4.98,4.37,10.48,6.14,17.23,15.46,21.46,26.42,7.64,19.83,22.82,28.35,42.9,29.58,6.59,.4,13.27-.71,19.91-1.17,1.57-.11,3.13-.39,5.53-.7,0,3.85-.02,7.21,0,10.56,.07,8,.21,16,.24,24,.03,10.02-5.93,14.25-15.5,10.89-37.22-13.07-68.05-35.2-91.86-66.57C-17.1,244.85-13.29,139.8,50.53,66.6,120.81-14,245.78-22.78,326.29,47.56c48.01,41.94,71.07,95.3,69.64,158.88-1.83,81.64-55.26,154.71-132.28,182.01-10.89,3.86-16.55-.15-16.49-11.74,.09-16.74,.23-33.48,.32-50.22,.05-10.02-1.06-19.86-5.94-28.83-1.74-3.2-4.07-6.09-6.39-9.51Z"/></svg>