<?xml version="1.0" encoding="UTF-8"?><svg id="Capa_1" xmlns="http://www.w3.org/2000/svg" viewBox="0 0 380.35 271.86"><defs><style>.cls-1{fill:#333;}</style></defs><path class="cls-1" d="M190.65,175.23C249.79,118.12,308.72,61.21,367.81,4.16,362.14,.23,356.3,0,350.39,0c-50.73,0-101.46,0-152.18,0-44.75,0-89.5-.02-134.24,.01-13.13,0-26.27,0-39.4,.32-5.31,.13-10,2.43-14.28,6.21,60.22,56.31,120.18,112.39,180.37,168.68Zm176.22,93.86l.06-1.25c-39.98-37.39-79.96-74.78-120.02-112.25-1.23,1.12-2.1,1.89-2.94,2.69-14.55,14-29.07,28.03-43.64,42-6.18,5.92-12.79,5.91-19,.12-11.56-10.79-23.11-21.58-34.67-32.36-3.82-3.56-7.64-7.11-11.64-10.82-38.9,37.59-77.62,75-116.94,112.99,2.88,.6,4.83,1.27,6.81,1.35,5.22,.23,10.46,.26,15.69,.27,47.96,.02,95.91,.02,143.87,.03,42.08,0,84.16,.02,126.25,0,15.17,0,30.33,.04,45.49-.29,3.58-.08,7.13-1.61,10.69-2.47ZM.76,250.73l.94,.33c38.2-36.86,76.4-73.73,114.85-110.84C77.65,103.95,39.12,68.01,0,31.54c0,8,0,15.13,0,22.25C0,116.95-.01,180.11,.02,243.27c0,2.49,.48,4.97,.74,7.45Zm379.59-4.08V26.45c-38.88,37.53-77.25,74.58-115.83,111.82,38.6,36.12,76.94,71.99,115.83,108.38Z"/><path class="cls-1" d="M190.65,175.23C130.46,118.93,70.5,62.86,10.28,6.54,14.57,2.77,19.25,.46,24.57,.34,37.7,.02,50.83,.03,63.96,.02,108.71-.01,153.46,0,198.21,0c50.73,0,101.46,0,152.18,0,5.9,0,11.75,.22,17.42,4.15-59.09,57.06-118.02,113.96-177.16,171.07Z"/><path class="cls-1" d="M366.87,269.09c-3.56,.86-7.11,2.39-10.69,2.47-15.16,.33-30.33,.28-45.49,.29-42.08,.02-84.16,0-126.25,0-47.96,0-95.91,0-143.87-.03-5.23,0-10.46-.04-15.69-.27-1.97-.09-3.92-.76-6.81-1.35,39.31-37.99,78.04-75.4,116.94-112.99,4,3.71,7.83,7.26,11.64,10.82,11.56,10.78,23.11,21.57,34.67,32.36,6.21,5.79,12.82,5.8,19-.12,14.57-13.97,29.09-28,43.64-42,.84-.81,1.71-1.57,2.94-2.69,40.06,37.47,80.04,74.86,120.02,112.25l-.06,1.25Z"/><path class="cls-1" d="M.76,250.73c-.26-2.48-.74-4.97-.74-7.45C-.01,180.11,0,116.95,0,53.79c0-7.13,0-14.25,0-22.25,39.11,36.48,77.64,72.41,116.54,108.69C78.1,177.33,39.9,214.19,1.7,251.06l-.94-.33Z"/><path class="cls-1" d="M380.35,246.65c-38.89-36.39-77.22-72.26-115.83-108.38,38.58-37.25,76.95-74.29,115.83-111.82V246.65Z"/></svg>