<?xml version="1.0" encoding="UTF-8"?><svg id="Capa_1" xmlns="http://www.w3.org/2000/svg" xmlns:xlink="http://www.w3.org/1999/xlink" viewBox="0 0 263.26 528"><defs><style>.cls-1{fill:#fff;}.cls-2{fill:none;stroke:#19e003;stroke-miterlimit:10;stroke-width:.75px;}</style><symbol id="Icono_cel" viewBox="0 0 66.81 134"><g><g><path d="M66.81,31.81h-.75V11.67c0-6.45-5.22-11.67-11.67-11.67H11.67C5.22,0,0,5.23,0,11.67H0V122.33c0,6.45,5.22,11.67,11.67,11.67H54.39c6.45,0,11.67-5.23,11.67-11.67V46.11h.75v-14.3Z"/><path class="cls-1" d="M54.89,3.01h-5.68c.85,2.1-.15,4.49-2.25,5.34-.49,.2-1.02,.3-1.55,.3H21.19c-2.26,0-4.1-1.84-4.1-4.1,0-.53,.1-1.06,.3-1.55h-5.47c-4.82,0-8.72,3.9-8.72,8.72V122.27c0,4.82,3.9,8.72,8.72,8.72H54.89c4.82,0,8.72-3.9,8.72-8.72h0V11.73c0-4.82-3.91-8.72-8.72-8.72h0Z"/></g><g><path class="cls-2" d="M25.98,74.32h-3.89v-4.46h-6.14v4.46h-3.79v-9.12c0-2.16,.6-3.85,1.79-5.06,1.19-1.22,2.89-1.82,5.1-1.82s3.94,.61,5.14,1.82c1.2,1.22,1.8,2.9,1.8,5.06v9.12Zm-3.89-7.82v-1.29c0-2.19-1.02-3.29-3.07-3.29s-3.07,1.1-3.07,3.29v1.29h6.14Z"/><path class="cls-2" d="M32.73,74.32h-3.89v-15.7h6.17c2.05,0,3.59,.5,4.62,1.5s1.55,2.34,1.55,4.02-.52,3.02-1.55,4.03-2.57,1.51-4.62,1.51h-2.28v4.63Zm0-8.23h2.35c1.44,0,2.16-.65,2.16-1.94s-.72-1.92-2.16-1.92h-2.35v3.86Z"/><path class="cls-2" d="M47.18,74.32h-3.89v-15.7h6.17c2.05,0,3.59,.5,4.62,1.5s1.55,2.34,1.55,4.02-.52,3.02-1.55,4.03-2.57,1.51-4.62,1.51h-2.28v4.63Zm0-8.23h2.35c1.44,0,2.16-.65,2.16-1.94s-.72-1.92-2.16-1.92h-2.35v3.86Z"/></g></g></symbol></defs><use width="66.81" height="134" transform="scale(3.94)" xlink:href="#Icono_cel"/></svg>