<?xml version="1.0" encoding="UTF-8"?><svg id="Capa_1" xmlns="http://www.w3.org/2000/svg" viewBox="0 0 400.87 485.46"><defs><style>.cls-1{fill:#19e003;}.cls-2{fill:#333;}</style></defs><path class="cls-1" d="M283.18,390.55c.05,2.37-.39,4.81-1.38,6.54-18.47,32.16-46.31,54.33-78.22,71.93-1.59,.87-4.49,.9-6.07,.03-32.22-17.68-60.22-40.08-78.72-72.58-1.26-2.22-1.41-5.7-.81-8.54-5.21,3.78-7.5,10.48-11.83,15.14,20.64,35.71,50.97,60.05,85.67,79.76,6.3,3.58,11.27,3.46,17.49-.07,34.64-19.66,64.78-44.06,85.39-79.4-2.91-5.41-7.03-9.36-11.52-12.81Z"/><path class="cls-2" d="M395.64,331.69c-5.87-13.68-12.53-27.05-19.14-40.4-11.95-24.13-23.52-48.49-36.41-72.12-12.83-23.51-33.63-36.03-60.43-36.29-52.84-.52-105.69-.53-158.53,.02-24.91,.26-44.94,11.3-58.08,32.8-7.45,12.2-13.86,25.07-20.19,37.91-12.66,25.71-25.52,51.35-37.21,77.51-12.5,27.97-4.16,47.14,24.04,58.39,13.31,5.31,26.71,10.36,40.02,15.67,11.9,4.76,23.56,5.41,35.84-1.82,.19-.11,.38-.23,.57-.34l.02,.04c4.33-4.66,6.62-11.36,11.83-15.14,.03-.13,.05-.27,.08-.4,.09-.37,.19-.73,.31-1.07,7.06-20.71-1.09-40.38-21.09-49.21-11.27-4.98-22.69-9.62-34.09-14.28-4.45-1.82-9.12-3.04-11.67,2.83-2.66,6.13,1.95,8.28,6.23,10.11,11.86,5.07,23.98,9.56,35.68,14.96,12.66,5.85,17.01,18.33,11.57,31.04-4.6,10.76-14.15,15.77-25.24,11.81-17.26-6.17-34.38-12.81-51.2-20.09-12.69-5.49-16.57-14.56-13.16-28.14,1.32-5.24,3.36-10.38,5.7-15.26,14.18-29.46,28.5-58.84,42.87-88.2,2.52-5.14,5.41-10.11,8.27-15.08,11.96-20.86,30.22-30.61,54.04-30.59,24.71,.03,49.42,0,74.13,0,24.71,0,49.42,.06,74.13-.02,24.21-.08,43.37,9.59,54.42,31.25,18.89,37.01,37.18,74.36,54.63,112.07,8.13,17.57,2.45,28.73-15.68,36.14-14.32,5.85-28.79,11.35-43.24,16.9-12.93,4.97-22.96,1.39-28.24-9.91-5.95-12.75-2.2-25.44,10.21-31.44,11.34-5.48,23.18-9.94,34.79-14.86,1.84-.78,4.39-1.15,5.32-2.56,1.52-2.31,3.32-5.87,2.5-7.89-.85-2.09-5.46-4.81-7.06-4.12-17.01,7.34-35.1,13.36-50.17,23.7-13.26,9.1-14.9,24.88-9.52,40.65,.43,1.25,.65,2.72,.69,4.23,4.48,3.45,8.6,7.4,11.52,12.81,.05-.08,.1-.16,.15-.24,13.41,8.26,26.42,6.44,39.75,.7,12.36-5.33,25.18-9.58,37.63-14.69,27.2-11.16,35.08-30.23,23.4-57.43Z"/><path class="cls-2" d="M200.48,164.3c-46.35-.15-82.89-36.45-82.84-82.31C117.68,36.39,154.76-.11,200.92,0c45.77,.11,82.55,37.16,82.34,82.95-.2,45.41-36.93,81.5-82.79,81.35Zm-.19-13.96c38.38,.1,69-29.74,69.21-67.46,.21-38.07-30.58-68.93-68.82-68.97-38.04-.04-69.07,30.28-69.27,67.68-.21,38.18,30.31,68.64,68.87,68.74Z"/><path class="cls-1" d="M186.32,350.41c15.08-15.24,29.37-29.76,43.75-44.19,13.1-13.16,19.25-13.17,32.27-.27,1.84,1.82,3.76,3.56,5.49,5.48,6.84,7.57,7.08,15.58-.13,22.95-23.31,23.82-46.77,47.49-70.37,71.02-7.56,7.54-14.24,7.58-21.8,.21-14.41-14.03-28.65-28.24-42.66-42.68-7.07-7.29-6.99-14.76,0-22.09,16.11-16.92,21.23-25.51,42.89-1.44,3.07,3.41,6.35,6.63,10.57,11.01Zm57.94-39.13c-15.24,15.43-30.13,30.53-45.06,45.59-12.8,12.91-12.96,13.02-25.33,.23-5.92-6.12-11.22-12.83-16.19-18.58-6.64,5.82-11.11,9.74-15.53,13.62,15.05,15.02,29.46,29.4,42.43,42.34,24.42-23.8,48.93-47.69,73.58-71.71-4.43-3.66-8.82-7.29-13.89-11.49Z"/><path class="cls-1" d="M96.83,270.91c0,12.2-.04,23.38,.02,34.56,.02,4.83-1.28,8.84-6.84,9-5.62,.16-7.07-3.6-7.02-8.6,.12-12.63-.42-25.29,.35-37.87,.2-3.24,3.6-8.01,6.61-9.1,34.99-12.66,70.16-24.84,105.39-36.85,3.23-1.1,7.5-1.04,10.74,.07,34.67,11.86,69.18,24.18,103.87,35.99,5.97,2.03,8.21,5.12,8.07,11.19-.27,12.34,.32,24.71-.38,37.01-.17,3-3.57,7.78-6.14,8.27-5.03,.95-7.34-3.25-7.34-8.26,0-9.47-.26-18.96,.08-28.42,.18-5-1.26-7.63-6.29-9.34-30.89-10.53-61.64-21.46-92.49-32.07-2.53-.87-5.83-1.18-8.28-.34-33.31,11.38-66.54,23-100.35,34.76Z"/></svg>