<svg id="Capa_1" data-name="Capa 1" xmlns="http://www.w3.org/2000/svg" viewBox="0 0 586.82 537.61"><defs><style>.cls-1{opacity:0.15;}.cls-16,.cls-2{fill:#263238;}.cls-3{fill:#37474f;}.cls-4{fill:#59c447;}.cls-5{fill:#e6e6e6;}.cls-6{fill:#e0e0e0;}.cls-7{fill:#f5f5f5;}.cls-8{fill:#ebebeb;}.cls-9{fill:#455a64;}.cls-10{fill:#fff;}.cls-11{fill:#a8e29f;}.cls-12,.cls-15,.cls-17,.cls-20{fill:#d5f2d1;}.cls-12,.cls-14,.cls-18{opacity:0.5;}.cls-13{fill:#95e28a;}.cls-16,.cls-22{opacity:0.9;}.cls-17,.cls-19{opacity:0.6;}.cls-18{fill:#b9e5b1;}.cls-20,.cls-21{opacity:0.8;}.cls-23{fill:#139b00;}</style></defs><g id="Desk"><g id="Keyboard"><path id="Shadow" class="cls-1" d="M259,473.9l-63.33,36.66a7.81,7.81,0,0,1-7.09,0L1.47,402.71c-2-1.13-2-3,0-4.1l63.32-36.67a7.86,7.86,0,0,1,7.1,0L259,469.8C260.93,470.93,260.94,472.77,259,473.9Z"/><g id="Keyboard-2" data-name="Keyboard"><path class="cls-2" d="M5.31,392.1a2.5,2.5,0,0,1,1.47-2.05l59.49-34.34a7.83,7.83,0,0,1,7.1,0l181.53,105a2.49,2.49,0,0,1,1.46,2.05V469a2.48,2.48,0,0,1-1.47,2l-59.46,34.34a7.86,7.86,0,0,1-7.1,0L6.78,400.55a2.48,2.48,0,0,1-1.47-2C5.3,397.77,5.31,392.85,5.31,392.1Z"/><path class="cls-3" d="M195.43,499l59.46-34.18c2-1.13,2-3,0-4.1l-181.53-105a7.83,7.83,0,0,0-7.1,0L6.78,390.05c-2,1.14-2,3,0,4.1L188.33,499A7.83,7.83,0,0,0,195.43,499Z"/><path class="cls-2" d="M192.11,499.81v6.38a7.22,7.22,0,0,0,3.33-.82L254.88,471a2.51,2.51,0,0,0,1.48-2.05v-6.26a2.5,2.5,0,0,1-1.48,2L195.44,499A7.23,7.23,0,0,1,192.11,499.81Z"/><path class="cls-4" d="M16.32,392.56a.08.08,0,0,1,0-.07l5.89-3.4,8,4.61-5.92,3.51-8-4.6Zm9.22-5.32a.08.08,0,0,1,0-.07l5.89-3.4,6.27,3.62-5.92,3.51-6.27-3.62ZM27.48,399a.12.12,0,0,1,0-.08l5.89-3.4,6.27,3.62-5.92,3.52-6.26-3.62Zm7.28-17.09a.12.12,0,0,1,0-.08l5.89-3.4,10.13,5.85-5.92,3.52L34.77,382ZM35,392.69a.07.07,0,0,1,0-.07l5.88-3.4,5,2.87L40,395.61l-5-2.87Zm1.94,11.77a.09.09,0,0,1,0-.08l5.88-3.4,6.28,3.62-5.93,3.52-6.26-3.62Zm6.21-7.06a.12.12,0,0,1,0-.08l5.89-3.39,5,2.87-5.92,3.52-5-2.88ZM44,376.6a.09.09,0,0,1,0-.08l5.89-3.4,8,4.61L52,381.25l-8-4.61Zm2.39,33.31a.12.12,0,0,1,0-.08l5.89-3.4,45.33,26.18-5.93,3.51L46.38,410Zm1.7-20.31a.09.09,0,0,1,0-.08L54,386.13,59,389l-5.93,3.52-5-2.87Zm3.23,12.51a.09.09,0,0,1,0-.08l5.88-3.4,5,2.88L56.28,405l-5-2.88Zm1.9-30.83a.09.09,0,0,1,0-.08l5.88-3.4,5,2.88-5.92,3.51-5-2.87ZM55.14,383s0-.07,0-.07l5.88-3.41,5,2.88L60.12,386l-5-2.88Zm1.08,11.27a.12.12,0,0,1,0-.08l5.89-3.4,5,2.88-5.93,3.52-5-2.88Zm3.23,12.51a.12.12,0,0,1,0-.08l5.89-3.4,5,2.88-5.93,3.52-5-2.88ZM61.35,376a.12.12,0,0,1,0-.08l5.89-3.4,5,2.88-5.92,3.51-5-2.87Zm1.94,11.76a.12.12,0,0,1,0-.08l5.89-3.4,5,2.88-5.92,3.52-5-2.88ZM64.37,399a.1.1,0,0,1,0-.08l5.88-3.4,5,2.88-5.93,3.52-5-2.88Zm0-34.2a.12.12,0,0,1,0-.08l5.89-3.4L76.58,365l-5.93,3.52-6.26-3.62Zm3.23,46.71a.09.09,0,0,1,0-.08l5.88-3.4,5,2.88-5.93,3.51-5-2.87Zm1.9-30.84s0-.07,0-.07l5.88-3.4,5,2.87-5.92,3.52-5-2.87Zm1.94,11.77a.09.09,0,0,1,0-.08l5.88-3.4,5,2.88-5.93,3.51-5-2.87Zm1.08,11.27a.12.12,0,0,1,0-.08l5.89-3.4,5,2.88-5.93,3.51-5-2.87Zm3.23,12.51a.12.12,0,0,1,0-.08l5.89-3.4,5,2.88-5.92,3.51-5-2.87Zm1.61-43.92a.12.12,0,0,1,0-.08l5.89-3.4,5,2.88-5.92,3.52-5-2.88Zm.29,13.08a.12.12,0,0,1,0-.08l5.89-3.39,5,2.87-5.93,3.52-5-2.87Zm1.94,11.77a.12.12,0,0,1,0-.08l5.89-3.4,5,2.88-5.93,3.51-5-2.87Zm1.08,11.27s0-.07,0-.08l5.89-3.4,5,2.88-5.93,3.51-5-2.87ZM83.91,421a.1.1,0,0,1,0-.08l5.89-3.4,5,2.88-5.93,3.51-5-2.87ZM85.53,377a.09.09,0,0,1,0-.08l5.88-3.4,5,2.88-5.93,3.51-5-2.87Zm.28,13.08a.12.12,0,0,1,0-.08l5.89-3.4,5,2.88L90.8,393l-5-2.88Zm2,11.77a.09.09,0,0,1,0-.08l5.89-3.4,5,2.88-5.93,3.51-5-2.87Zm1.08,11.26a.12.12,0,0,1,0-.07l5.89-3.4,5,2.88-5.93,3.51-5-2.87Zm3.23,12.51a.08.08,0,0,1,0-.07l5.89-3.4,5,2.87-5.92,3.52-5-2.87Zm1.61-43.92a.12.12,0,0,1,0-.07l5.89-3.4,5,2.88-5.92,3.51-5-2.87ZM94,394.82a.12.12,0,0,1,0-.08l5.89-3.4,5,2.88L99,397.74l-5-2.88Zm.9,43.09a.08.08,0,0,1,0-.07l5.89-3.4,6.27,3.62-5.93,3.51L94.88,438Zm1-31.33a.09.09,0,0,1,0-.07l5.89-3.4,5,2.88-5.93,3.51-5-2.87ZM97,417.85a.07.07,0,0,1,.05-.07l5.89-3.4,5,2.87L102,420.77l-5-2.87Zm3.24,12.51a.12.12,0,0,1,0-.08l5.89-3.4,5,2.88-5.93,3.52-5-2.88Zm1.61-43.92a.07.07,0,0,1,0-.07l5.88-3.4,5,2.88-5.93,3.51-5-2.87Zm.28,13.09a.1.1,0,0,1,0-.08l5.89-3.4,5,2.88-5.93,3.51-5-2.87Zm1.95,11.76a.08.08,0,0,1,0-.07l5.89-3.4,5,2.87-5.93,3.52-5-2.88Zm.24,32.08s0-.08,0-.08l5.89-3.4,6.27,3.62L110.59,447l-6.26-3.62Zm.84-20.81a.12.12,0,0,1,0-.08l5.89-3.4,5,2.88-5.93,3.52-5-2.88Zm3.23,12.51a.12.12,0,0,1,0-.08l5.89-3.4,5,2.88L113.37,438l-5-2.87Zm1.9-30.83a.12.12,0,0,1,0-.08l5.89-3.4,5,2.88-5.93,3.51-5-2.87ZM112.22,416a.12.12,0,0,1,0-.08l5.89-3.4,5,2.88-5.92,3.52-5-2.88Zm1.08,11.27a.1.1,0,0,1,0-.08l5.89-3.4,5,2.88-5.93,3.52-5-2.88Zm.24-34.07a.12.12,0,0,1,0-.08l5.89-3.4,5,2.88-5.92,3.52-5-2.88Zm.22,55.62a.09.09,0,0,1,0-.08l5.89-3.4L126,449,120,452.48l-6.26-3.62Zm2.77-9a.1.1,0,0,1,0-.08l5.89-3.4,5,2.88-5.93,3.51-5-2.87Zm1.9-30.84s0-.07,0-.08l5.88-3.39,5,2.87-5.93,3.52-5-2.87Zm1.95,11.77a.12.12,0,0,1,0-.08l5.89-3.4,5,2.88-5.93,3.51-5-2.87ZM121.46,432a.12.12,0,0,1,0-.08l5.89-3.4,5,2.88-5.93,3.51-5-2.87Zm.23-34.07a.1.1,0,0,1,0-.08l5.88-3.4,5,2.88-5.93,3.52-5-2.88Zm1.51,56.36a.12.12,0,0,1,0-.08l5.89-3.4,8,4.61-5.93,3.52-8-4.61Zm1.49-9.78a.1.1,0,0,1,0-.08l5.88-3.4,15.72,9.07-5.93,3.52-15.71-9.07Zm1.9-30.84a.12.12,0,0,1,0-.08l5.89-3.39,5,2.87-5.93,3.52-5-2.87Zm1.94,11.77a.12.12,0,0,1,0-.08l5.89-3.4,5,2.88-5.93,3.51-5-2.87Zm1.08,11.26a.09.09,0,0,1,0-.07l5.89-3.4,5,2.88-5.93,3.51-5-2.87Zm.24-34.06a.12.12,0,0,1,0-.08l5.89-3.4,5,2.88-5.92,3.51-5-2.87Zm4.89,15.74a.12.12,0,0,1,0-.08l5.9-3.4,5,2.88-5.93,3.52-5-2.88Zm1.33,43.34a.08.08,0,0,1,.05-.07l5.89-3.4,5,2.87-5.93,3.52-5-2.88Zm.62-31.57a.12.12,0,0,1,0-.08l5.89-3.4,5,2.88L141.67,433l-5-2.87Zm1.08,11.26a.12.12,0,0,1,0-.07l5.89-3.4,4.55,2.63a3.16,3.16,0,0,0,1.44.29,3.2,3.2,0,0,0,1.51-.31l7.73-4.46,5.84,3.37-15.14,8.84-11.85-6.84Zm.24-34.06a.09.09,0,0,1,0-.08l5.88-3.4,5,2.88L143,410.24l-5-2.87Zm4.89,15.74a.12.12,0,0,1,0-.08l5.89-3.4,5,2.88L147.88,426l-5-2.88Zm1.33,43.34a.1.1,0,0,1,.05-.08l5.88-3.4,5,2.88-5.92,3.52-5-2.88Zm.61-31.58a.08.08,0,0,1,0-.07l5.88-3.4,5,2.88-5.93,3.51-5-2.87Zm4.87-20.75a.08.08,0,0,1,0-.07l5.89-3.4,5,2.87L154.7,417l-5-2.87Zm1.34,13.7a.1.1,0,0,1,0-.08l5.88-3.4,5,2.88L156,430.69l-5-2.87Zm1.33,43.34a.1.1,0,0,1,.05-.08l5.89-3.4,5,2.88L157.37,474l-5-2.88Zm1.07-10a.12.12,0,0,1,0-.08l5.89-3.4,5,2.88L158.43,464l-5-2.88Zm4.41-42.3a.1.1,0,0,1,0-.08l5.88-3.4,5,2.88-5.92,3.52-5-2.87Zm1.35,13.69a.12.12,0,0,1,0-.07l5.89-3.4,8.85,5.11-5.93,3.51-8.84-5.1Zm3,44.34a.12.12,0,0,1,0-.08l5.89-3.4,13.14,7.59-5.93,3.51-13.13-7.58Zm1.47-31.08a.12.12,0,0,1,0-.08l5.89-3.4,5,2.88-5.92,3.51-5-2.87ZM166,423.5a.12.12,0,0,1,0-.08L172,420l5,2.88L171,426.42l-5-2.88Zm5.46,48a.09.09,0,0,1,0-.08l5.89-3.4,5,2.88-5.92,3.51-5-2.87Zm.4-21.05a.1.1,0,0,1,.05-.08l5.88-3.4,5,2.88-5.93,3.51-5-2.87Zm1.07-10a.09.09,0,0,1,0-.08l5.88-3.4,5,2.88-5.93,3.51-5-2.87Zm1.23-12.21a.09.09,0,0,1,0-.08l5.88-3.4,5,2.88-5.92,3.51-5-2.87Zm4.39,58a.12.12,0,0,1,0-.08l5.89-3.4,5,2.88-5.92,3.51-5-2.87Zm1.06-10a.12.12,0,0,1,0-.08l5.89-3.4,5,2.88-5.93,3.51-5-2.87Zm.41-21.06a.09.09,0,0,1,0-.07l5.89-3.4,5,2.88L185,458.07l-5-2.87Zm.66,11a.09.09,0,0,1,0-.08l5.88-3.4,5,2.88-5.92,3.51-5-2.87Zm.4-21.06a.09.09,0,0,1,0-.07l5.89-3.4,5,2.88L186.09,448l-5-2.87Zm3-11.16a.12.12,0,0,1,0-.08l5.89-3.4,5,2.88-5.93,3.51-5-2.87Zm2.59,57a.1.1,0,0,1,.05-.08l15.1-8.71,5,2.87-15.15,8.84-5-2.87Zm1.07-10a.08.08,0,0,1,0-.07l5.89-3.4,5,2.87-5.93,3.52-5-2.87Zm1.06-10a.08.08,0,0,1,0-.07l5.89-3.4,5,2.88-5.92,3.51-5-2.87Zm.41-21.05a.09.09,0,0,1,0-.08l5.89-3.39,5,2.87-5.93,3.52-5-2.87Zm.65,11a.12.12,0,0,1,0-.07l5.89-3.4,5,2.88-5.93,3.51-5-2.87Zm2.38-22.18a.12.12,0,0,1,0-.08l5.89-3.4,5,2.88-5.93,3.51-5-2.87ZM197,475.59s0-.07,0-.07l5.88-3.41,5,2.88L202,478.51l-5-2.87Zm1.05-10a.08.08,0,0,1,.05-.07l5.89-3.41,5,2.88-5.93,3.52-5-2.87Zm1.07-10s0-.07,0-.07l5.88-3.4,5,2.87-5.93,3.52-5-2.88Zm1.31-12.16a.09.09,0,0,1,0-.07l5.89-3.4,5,2.88-5.93,3.51-5-2.87Zm4.72,36.93a.12.12,0,0,1,0-.08l15.11-8.72,5,2.88-15.14,8.84-5-2.88Zm1.06-10a.08.08,0,0,1,0-.07l5.89-3.41,5,2.88-5.93,3.52-5-2.88Zm1.06-10a.09.09,0,0,1,0-.07l5.89-3.4,5,2.87-5.93,3.52-5-2.88Zm5.4-12.53a.1.1,0,0,1,0-.08l2.49-1.47,5,2.87-2.56,1.58-5-2.86ZM215.44,465a.12.12,0,0,1,0-.08l5.89-3.4,5,2.88-5.93,3.52-5-2.88Zm5.4-12.53a.12.12,0,0,1,0-.08l2.5-1.48,5,2.88-2.56,1.58-5-2.86Zm2.75,17.24a.12.12,0,0,1,0-.08l5.89-3.4,5,2.88-5.93,3.51-5-2.87Zm5.4-12.54a.07.07,0,0,1,0-.07l2.5-1.48,5,2.88L234,460l-5-2.86Zm8.15,4.71s0-.07.05-.08l2.5-1.47,5,2.88-2.56,1.58-5-2.86Z"/></g></g><g id="Device"><polygon id="Shadow-2" data-name="Shadow" class="cls-1" points="405.3 481.02 461.01 448.85 182.48 288.04 126.77 320.2 405.3 481.02"/><g id="Monitor"><path class="cls-5" d="M247.58,428.66l-39.77-23c-4.1-2.37-6.15-5.47-6.15-8.58s0-5.53,0-5.53l37.43-21.24a8.75,8.75,0,0,0,4-6.86v-49l69.47,40.14v49a8.74,8.74,0,0,1-4,6.86l-31.26,18.2C269.07,433.39,255.78,433.39,247.58,428.66Z"/><path class="cls-6" d="M295.81,412.29v5.51l12.73-7.34a8.77,8.77,0,0,0,4-6.86v-49l-13.24-7.63c-.27,3.36-.57,6.83-.84,10.22l9.28,5.37v38.31a8.68,8.68,0,0,1-4,6.85Z"/><path class="cls-7" d="M307.7,400.84a8.74,8.74,0,0,1-4,6.86l-26.46,15.43c-8.2,4.73-21.5,4.74-29.7,0l-39.79-23c-8.2-4.73-8.2-12.4,0-17.14l26.48-15.44a8.74,8.74,0,0,0,4-6.86V322.39l69.47,40.14Z"/><path class="cls-8" d="M226.21,372.22h0l8.06-4.66a8.74,8.74,0,0,0,4-6.86V322.39l69.47,40.14v38.31a8.74,8.74,0,0,1-4,6.86l-7.92,4.58Z"/><path class="cls-8" d="M201.65,391.57v5.53c0,3.11,2.06,6.19,6.15,8.57l39.78,23a29.68,29.68,0,0,0,14.17,3.52v-5.51a29.68,29.68,0,0,1-14.17-3.52l-39.78-23C203.71,397.78,201.65,394.68,201.65,391.57Z"/><path class="cls-9" d="M419.23,453.74a10.6,10.6,0,0,1-9.59-.18L141,298.47a11,11,0,0,1-4.95-8.57V54.76a10.61,10.61,0,0,1,4.65-8.4,10.6,10.6,0,0,1,9.59.18l268.63,155.1a10.92,10.92,0,0,1,4.95,8.57V445.35A10.6,10.6,0,0,1,419.23,453.74Z"/><path class="cls-3" d="M409.64,453.56,141,298.46a10.94,10.94,0,0,1-4.95-8.57V54.75c0-3.15,2.22-4.43,4.95-2.85L409.64,207a11,11,0,0,1,4.95,8.57V450.7C414.59,453.86,412.37,455.14,409.64,453.56Z"/><path class="cls-6" d="M410.37,454.54A9.25,9.25,0,0,0,423.88,446V419.5l-9.28,5.37v26.45C414.6,454.2,412.77,455.5,410.37,454.54Z"/><path class="cls-10" d="M414.59,424.87v26.44c0,3.16-2.22,4.43-4.95,2.86L141,299.07a11,11,0,0,1-4.95-8.57V264.05Z"/><path class="cls-11" d="M405.31,404.75V218.64a6.57,6.57,0,0,0-3-5.14l-254-146.66c-1.64-1-3-.18-3,1.72v186.1a6.57,6.57,0,0,0,3,5.15l254,146.65C404,407.41,405.31,406.64,405.31,404.75Z"/><path class="cls-12" d="M405.31,406.33V220.23a6.55,6.55,0,0,0-3-5.14l-254-146.66c-1.64-1-3-.18-3,1.71V256.25a6.57,6.57,0,0,0,3,5.14l254,146.66C404,409,405.31,408.23,405.31,406.33Z"/><path class="cls-9" d="M275.32,354.57a10.25,10.25,0,0,1,4.65,8.05c0,3-2.08,4.16-4.65,2.68a10.29,10.29,0,0,1-4.64-8.05C270.68,354.29,272.76,353.09,275.32,354.57Z"/><path class="cls-2" d="M413.13,210.67a10.47,10.47,0,0,1,1.47,4.89V424.87l9.28-5.37V210.21a10.14,10.14,0,0,0-1.47-4.89Z"/></g></g><g id="Window"><g id="Window-2" data-name="Window"><path class="cls-9" d="M180,6.21a1.56,1.56,0,0,1,.08-.44s0-.06,0-.09a1.61,1.61,0,0,1,.11-.42,2.25,2.25,0,0,1,.28-.61.76.76,0,0,1,.16-.25.7.7,0,0,1,.13-.17,1.57,1.57,0,0,1,.32-.31l0,0a2,2,0,0,1,.4-.23,3.42,3.42,0,0,1,3.19.4L498.22,185a10.5,10.5,0,0,1,4.75,8.21V420.1s0,0,0,0v1a3.21,3.21,0,0,1-1.7,2.85l-.21.14-.24.14a2.83,2.83,0,0,1-.41.14,3.08,3.08,0,0,1-.61.07,3,3,0,0,1-1.57-.45l-.12-.07h0l-4.52-2.61L184.72,243.06a10.47,10.47,0,0,1-4.74-8.21V6.8A5.54,5.54,0,0,1,180,6.21Z"/><path class="cls-13" d="M181.53,3.66a3.42,3.42,0,0,1,3.19.4L498.22,185a10.5,10.5,0,0,1,4.75,8.21v15.48l6-3.54V189.76a10.46,10.46,0,0,0-4.72-8.2L190.76.64a3.29,3.29,0,0,0-3.43-.28C186.47.87,182.54,3.13,181.53,3.66Z"/><path class="cls-13" d="M180,6.77c0-3,2.13-4.21,4.73-2.7L498.23,185a10.47,10.47,0,0,1,4.73,8.2v15.49L180,22.31Z"/><g class="cls-14"><path class="cls-15" d="M184.72,4.07,498.22,185a9.74,9.74,0,0,1,3.34,3.51l6-3.48a9.49,9.49,0,0,0-3.3-3.46L190.77.64a3.33,3.33,0,0,0-3.44-.28c-.85.52-4.78,2.75-5.78,3.29A3.43,3.43,0,0,1,184.72,4.07Z"/></g><path class="cls-1" d="M509,205.15v-15.4a9.84,9.84,0,0,0-1.44-4.73l-6,3.47a9.56,9.56,0,0,1,1.42,4.7v15.49Z"/><path class="cls-9" d="M492.28,188.26c1.48.85,2.68,3.39,2.68,5.66s-1.2,3.43-2.68,2.58-2.67-3.39-2.67-5.67S490.8,187.41,492.28,188.26Z"/><path class="cls-9" d="M482.65,182.69c1.48.85,2.67,3.39,2.67,5.66s-1.19,3.43-2.67,2.58-2.68-3.39-2.68-5.67S481.17,181.83,482.65,182.69Z"/><path class="cls-9" d="M473,177.12c1.47.85,2.67,3.38,2.67,5.66s-1.2,3.43-2.67,2.57-2.68-3.38-2.68-5.66S471.54,176.26,473,177.12Z"/><path class="cls-16" d="M501.26,424l.25-.14,5-2.89a5,5,0,0,0,2.47-3.67,5.34,5.34,0,0,0,0-.69V205.13l-6,3.55V421.17a3.11,3.11,0,0,1-1.48,2.69,1.3,1.3,0,0,1-.15.1l0,0Z"/></g><g id="Code"><path class="cls-13" d="M276,103.06l66.09,38.09a3.62,3.62,0,0,1,1.69,2.79c0,1-.76,1.39-1.69.85L276,106.71a3.63,3.63,0,0,1-1.69-2.8C274.33,102.9,275.09,102.52,276,103.06Z"/><path class="cls-5" d="M301.27,176l25.06,14.41a3.61,3.61,0,0,1,1.68,2.79c0,1-.75,1.39-1.68.85l-25.06-14.4a3.61,3.61,0,0,1-1.68-2.8C299.59,175.81,300.34,175.43,301.27,176Z"/><path class="cls-5" d="M301.27,190.55,326.33,205a3.61,3.61,0,0,1,1.68,2.8c0,1-.75,1.38-1.68.85L301.27,194.2a3.61,3.61,0,0,1-1.68-2.8C299.59,190.4,300.34,190,301.27,190.55Z"/><path class="cls-13" d="M348.64,144.91,481,221.12a3.64,3.64,0,0,1,1.68,2.8c0,1-.76,1.39-1.68.85L348.64,148.56a3.63,3.63,0,0,1-1.69-2.8C347,144.76,347.71,144.38,348.64,144.91Z"/><path class="cls-13" d="M301.82,278.22l40.29,23.32a3.61,3.61,0,0,1,1.69,2.79c0,1-.76,1.39-1.69.85l-40.29-23.31a3.61,3.61,0,0,1-1.68-2.8C300.14,278.07,300.89,277.69,301.82,278.22Z"/><path class="cls-13" d="M348.64,305.3,481,381.61a3.64,3.64,0,0,1,1.68,2.79c0,1-.76,1.39-1.68.86L348.64,309a3.63,3.63,0,0,1-1.69-2.8C347,305.15,347.71,304.77,348.64,305.3Z"/><path class="cls-13" d="M276,117.68l33.29,19.13A3.58,3.58,0,0,1,311,139.6c0,1-.75,1.39-1.68.85L276,121.32a3.62,3.62,0,0,1-1.69-2.79C274.33,117.52,275.09,117.14,276,117.68Z"/><path class="cls-17" d="M276,117.68l33.29,19.13A3.58,3.58,0,0,1,311,139.6c0,1-.75,1.39-1.68.85L276,121.32a3.62,3.62,0,0,1-1.69-2.79C274.33,117.52,275.09,117.14,276,117.68Z"/><path class="cls-13" d="M276,132.23l15.57,9a3.63,3.63,0,0,1,1.69,2.8c0,1-.76,1.38-1.69.85l-15.57-9a3.63,3.63,0,0,1-1.69-2.8C274.33,132.07,275.09,131.69,276,132.23Z"/><path class="cls-18" d="M276,132.23l15.57,9a3.63,3.63,0,0,1,1.69,2.8c0,1-.76,1.38-1.69.85l-15.57-9a3.63,3.63,0,0,1-1.69-2.8C274.33,132.07,275.09,131.69,276,132.23Z"/><path class="cls-13" d="M276,161.39l15.57,9a3.59,3.59,0,0,1,1.69,2.79c0,1-.76,1.39-1.69.85L276,165a3.63,3.63,0,0,1-1.69-2.8C274.33,161.24,275.09,160.86,276,161.39Z"/><path class="cls-18" d="M276,161.39l15.57,9a3.59,3.59,0,0,1,1.69,2.79c0,1-.76,1.39-1.69.85L276,165a3.63,3.63,0,0,1-1.69-2.8C274.33,161.24,275.09,160.86,276,161.39Z"/><path class="cls-13" d="M276,176l15.57,9a3.59,3.59,0,0,1,1.69,2.79c0,1-.76,1.39-1.69.85l-15.57-9a3.62,3.62,0,0,1-1.69-2.79C274.33,175.82,275.09,175.44,276,176Z"/><path class="cls-18" d="M276,176l15.57,9a3.59,3.59,0,0,1,1.69,2.79c0,1-.76,1.39-1.69.85l-15.57-9a3.62,3.62,0,0,1-1.69-2.79C274.33,175.82,275.09,175.44,276,176Z"/><path class="cls-13" d="M315.83,140.57l20,11.56a3.61,3.61,0,0,1,1.68,2.8c0,1-.75,1.39-1.68.85l-20-11.56a3.61,3.61,0,0,1-1.68-2.8C314.15,140.41,314.9,140,315.83,140.57Z"/><path class="cls-17" d="M315.83,140.57l20,11.56a3.61,3.61,0,0,1,1.68,2.8c0,1-.75,1.39-1.68.85l-20-11.56a3.61,3.61,0,0,1-1.68-2.8C314.15,140.41,314.9,140,315.83,140.57Z"/><path class="cls-10" d="M346.71,246,481,323.28a3.61,3.61,0,0,1,1.68,2.8c0,1-.75,1.39-1.68.85l-134.26-77.3a3.62,3.62,0,0,1-1.69-2.79C345,245.83,345.78,245.45,346.71,246Z"/><path class="cls-10" d="M461,297.12l20,11.56a3.64,3.64,0,0,1,1.68,2.79c0,1-.76,1.39-1.68.86l-20-11.57a3.61,3.61,0,0,1-1.68-2.79C459.32,297,460.07,296.58,461,297.12Z"/><path class="cls-10" d="M320.22,216.05l134.26,77.3a3.61,3.61,0,0,1,1.68,2.79c0,1-.75,1.39-1.68.86L320.22,219.7a3.63,3.63,0,0,1-1.69-2.8C318.53,215.9,319.29,215.51,320.22,216.05Z"/><path class="cls-13" d="M301.27,146.81l33.3,19.13a3.64,3.64,0,0,1,1.68,2.8c0,1-.76,1.38-1.68.85l-33.3-19.13a3.61,3.61,0,0,1-1.68-2.8C299.59,146.66,300.34,146.28,301.27,146.81Z"/><path class="cls-17" d="M301.27,146.81l33.3,19.13a3.64,3.64,0,0,1,1.68,2.8c0,1-.76,1.38-1.68.85l-33.3-19.13a3.61,3.61,0,0,1-1.68-2.8C299.59,146.66,300.34,146.28,301.27,146.81Z"/><path class="cls-13" d="M341.09,169.71,480,250.05a3.63,3.63,0,0,1,1.69,2.8c0,1-.76,1.39-1.69.85L341.09,173.35a3.6,3.6,0,0,1-1.68-2.79C339.41,169.55,340.16,169.17,341.09,169.71Z"/><path class="cls-17" d="M341.09,169.71,480,250.05a3.63,3.63,0,0,1,1.69,2.8c0,1-.76,1.39-1.69.85L341.09,173.35a3.6,3.6,0,0,1-1.68-2.79C339.41,169.55,340.16,169.17,341.09,169.71Z"/><path class="cls-5" d="M301.27,234.6,481,338.22a3.61,3.61,0,0,1,1.68,2.8c0,1-.75,1.39-1.68.85L301.27,238.24a3.58,3.58,0,0,1-1.68-2.79C299.59,234.44,300.34,234.06,301.27,234.6Z"/><path class="cls-13" d="M276,220l15.57,9a3.63,3.63,0,0,1,1.69,2.8c0,1-.76,1.39-1.69.85l-15.57-9a3.63,3.63,0,0,1-1.69-2.8C274.33,219.87,275.09,219.49,276,220Z"/><path class="cls-18" d="M276,220l15.57,9a3.63,3.63,0,0,1,1.69,2.8c0,1-.76,1.39-1.69.85l-15.57-9a3.63,3.63,0,0,1-1.69-2.8C274.33,219.87,275.09,219.49,276,220Z"/><path class="cls-5" d="M301.27,249.18,481,352.8a3.61,3.61,0,0,1,1.68,2.79c0,1-.75,1.39-1.68.86L301.27,252.82a3.61,3.61,0,0,1-1.68-2.79C299.59,249,300.34,248.64,301.27,249.18Z"/><path class="cls-13" d="M276,234.6l15.57,9a3.63,3.63,0,0,1,1.69,2.8c0,1-.76,1.38-1.69.85l-15.57-9a3.59,3.59,0,0,1-1.69-2.79C274.33,234.44,275.09,234.06,276,234.6Z"/><path class="cls-18" d="M276,234.6l15.57,9a3.63,3.63,0,0,1,1.69,2.8c0,1-.76,1.38-1.69.85l-15.57-9a3.59,3.59,0,0,1-1.69-2.79C274.33,234.44,275.09,234.06,276,234.6Z"/><path class="cls-5" d="M301.27,263.75,481,367.38a3.58,3.58,0,0,1,1.68,2.79c0,1-.75,1.39-1.68.85L301.27,267.4a3.61,3.61,0,0,1-1.68-2.8C299.59,263.6,300.34,263.22,301.27,263.75Z"/><path class="cls-13" d="M276,249.18l15.57,9a3.61,3.61,0,0,1,1.69,2.79c0,1-.76,1.39-1.69.85l-15.57-9a3.62,3.62,0,0,1-1.69-2.79C274.33,249,275.09,248.64,276,249.18Z"/><path class="cls-18" d="M276,249.18l15.57,9a3.61,3.61,0,0,1,1.69,2.79c0,1-.76,1.39-1.69.85l-15.57-9a3.62,3.62,0,0,1-1.69-2.79C274.33,249,275.09,248.64,276,249.18Z"/><g class="cls-19"><path class="cls-15" d="M251.73,88.44l9.16,5.29a3.65,3.65,0,0,1,1.66,2.88V100c0,1.06-.74,1.49-1.66,1l-9.15-5.28a3.68,3.68,0,0,1-1.67-2.88V89.4C250.07,88.34,250.82,87.91,251.73,88.44Z"/><path class="cls-15" d="M251.73,103.16l9.16,5.28a3.67,3.67,0,0,1,1.66,2.88v3.37c0,1.06-.74,1.49-1.66,1l-9.15-5.28a3.68,3.68,0,0,1-1.67-2.89v-3.36C250.07,103.06,250.82,102.63,251.73,103.16Z"/><path class="cls-15" d="M251.73,117.88l9.16,5.28a3.67,3.67,0,0,1,1.66,2.88v3.37c0,1.06-.74,1.49-1.66,1l-9.15-5.29a3.68,3.68,0,0,1-1.67-2.88v-3.36C250.07,117.78,250.82,117.35,251.73,117.88Z"/><path class="cls-15" d="M251.73,132.6l9.16,5.28a3.67,3.67,0,0,1,1.66,2.88v3.37c0,1.06-.74,1.49-1.66,1l-9.15-5.29a3.68,3.68,0,0,1-1.67-2.88v-3.36C250.07,132.5,250.82,132.07,251.73,132.6Z"/><path class="cls-15" d="M251.73,147.32l9.16,5.28a3.67,3.67,0,0,1,1.66,2.88v3.37c0,1.06-.74,1.49-1.66,1l-9.15-5.29a3.68,3.68,0,0,1-1.67-2.88v-3.36C250.07,147.22,250.82,146.79,251.73,147.32Z"/><path class="cls-15" d="M251.73,162l9.16,5.28a3.67,3.67,0,0,1,1.66,2.88v3.37c0,1.06-.74,1.49-1.66,1l-9.15-5.29a3.68,3.68,0,0,1-1.67-2.88V163C250.07,161.94,250.82,161.51,251.73,162Z"/><path class="cls-15" d="M251.73,176.75l9.16,5.29a3.67,3.67,0,0,1,1.66,2.88v3.37c0,1.06-.74,1.49-1.66,1L251.74,184a3.68,3.68,0,0,1-1.67-2.88v-3.37C250.07,176.65,250.82,176.22,251.73,176.75Z"/><path class="cls-15" d="M251.73,191.47l9.16,5.29a3.67,3.67,0,0,1,1.66,2.88V203c0,1.06-.74,1.49-1.66,1l-9.15-5.29a3.68,3.68,0,0,1-1.67-2.88v-3.37C250.07,191.37,250.82,190.94,251.73,191.47Z"/><path class="cls-15" d="M251.73,206.19l9.16,5.29a3.67,3.67,0,0,1,1.66,2.88v3.36c0,1.07-.74,1.5-1.66,1l-9.15-5.28a3.68,3.68,0,0,1-1.67-2.88v-3.37C250.07,206.09,250.82,205.66,251.73,206.19Z"/><path class="cls-15" d="M251.73,220.91l9.16,5.29a3.67,3.67,0,0,1,1.66,2.88v3.36c0,1.06-.74,1.49-1.66,1l-9.15-5.28a3.68,3.68,0,0,1-1.67-2.88v-3.37C250.07,220.81,250.82,220.38,251.73,220.91Z"/><path class="cls-15" d="M251.73,235.63l9.16,5.29a3.67,3.67,0,0,1,1.66,2.88v3.36c0,1.06-.74,1.49-1.66,1l-9.15-5.28a3.68,3.68,0,0,1-1.67-2.88v-3.37C250.07,235.53,250.82,235.1,251.73,235.63Z"/><path class="cls-15" d="M251.73,250.35l9.16,5.29a3.67,3.67,0,0,1,1.66,2.88v3.36c0,1.06-.74,1.49-1.66,1l-9.15-5.28a3.68,3.68,0,0,1-1.67-2.88v-3.37C250.07,250.25,250.82,249.82,251.73,250.35Z"/></g><path class="cls-3" d="M191,40.63l49.51,28.58A7.36,7.36,0,0,1,243.83,75v57.17c0,2.12-1.49,3-3.32,1.92L191,105.47a7.35,7.35,0,0,1-3.33-5.76V42.55C187.67,40.43,189.16,39.57,191,40.63Z"/><path class="cls-13" d="M195.59,97.29l4.56,2.64a3.61,3.61,0,0,1,1.68,2.79c0,1-.75,1.39-1.68.86l-4.56-2.64a3.61,3.61,0,0,1-1.68-2.79C193.91,97.14,194.66,96.76,195.59,97.29Z"/><path class="cls-20" d="M195.59,97.29l4.56,2.64a3.61,3.61,0,0,1,1.68,2.79c0,1-.75,1.39-1.68.86l-4.56-2.64a3.61,3.61,0,0,1-1.68-2.79C193.91,97.14,194.66,96.76,195.59,97.29Z"/><path class="cls-13" d="M195.59,50.48l4.56,2.63a3.61,3.61,0,0,1,1.68,2.8c0,1-.75,1.39-1.68.85l-4.56-2.64a3.58,3.58,0,0,1-1.68-2.79C193.91,50.32,194.66,49.94,195.59,50.48Z"/><path class="cls-20" d="M195.59,50.48l4.56,2.63a3.61,3.61,0,0,1,1.68,2.8c0,1-.75,1.39-1.68.85l-4.56-2.64a3.58,3.58,0,0,1-1.68-2.79C193.91,50.32,194.66,49.94,195.59,50.48Z"/><path class="cls-13" d="M202,63.52l4.56,2.63a3.61,3.61,0,0,1,1.68,2.8c0,1-.75,1.39-1.68.85L202,67.16a3.58,3.58,0,0,1-1.68-2.79C200.32,63.36,201.07,63,202,63.52Z"/><path class="cls-20" d="M202,63.52l4.56,2.63a3.61,3.61,0,0,1,1.68,2.8c0,1-.75,1.39-1.68.85L202,67.16a3.58,3.58,0,0,1-1.68-2.79C200.32,63.36,201.07,63,202,63.52Z"/><path class="cls-13" d="M202,72.86l4.56,2.63a3.61,3.61,0,0,1,1.68,2.8c0,1-.75,1.39-1.68.85L202,76.5a3.58,3.58,0,0,1-1.68-2.79C200.32,72.7,201.07,72.32,202,72.86Z"/><path class="cls-20" d="M202,72.86l4.56,2.63a3.61,3.61,0,0,1,1.68,2.8c0,1-.75,1.39-1.68.85L202,76.5a3.58,3.58,0,0,1-1.68-2.79C200.32,72.7,201.07,72.32,202,72.86Z"/><path class="cls-13" d="M195.59,78.56l4.56,2.64A3.58,3.58,0,0,1,201.83,84c0,1-.75,1.39-1.68.85l-4.56-2.63a3.61,3.61,0,0,1-1.68-2.8C193.91,78.41,194.66,78,195.59,78.56Z"/><path class="cls-20" d="M195.59,78.56l4.56,2.64A3.58,3.58,0,0,1,201.83,84c0,1-.75,1.39-1.68.85l-4.56-2.63a3.61,3.61,0,0,1-1.68-2.8C193.91,78.41,194.66,78,195.59,78.56Z"/><path class="cls-13" d="M202,91.61l4.56,2.64A3.58,3.58,0,0,1,208.24,97c0,1-.75,1.39-1.68.85L202,95.26a3.61,3.61,0,0,1-1.68-2.8C200.32,91.46,201.07,91.07,202,91.61Z"/><path class="cls-20" d="M202,91.61l4.56,2.64A3.58,3.58,0,0,1,208.24,97c0,1-.75,1.39-1.68.85L202,95.26a3.61,3.61,0,0,1-1.68-2.8C200.32,91.46,201.07,91.07,202,91.61Z"/><path class="cls-13" d="M208.07,57.69l27.84,16.07a3.61,3.61,0,0,1,1.68,2.79c0,1-.75,1.39-1.68.86L208.07,61.33a3.58,3.58,0,0,1-1.68-2.79C206.39,57.53,207.14,57.15,208.07,57.69Z"/><path class="cls-20" d="M208.07,57.69l27.84,16.07a3.61,3.61,0,0,1,1.68,2.79c0,1-.75,1.39-1.68.86L208.07,61.33a3.58,3.58,0,0,1-1.68-2.79C206.39,57.53,207.14,57.15,208.07,57.69Z"/><path class="cls-13" d="M208.07,104.5l27.84,16.08a3.58,3.58,0,0,1,1.68,2.79c0,1-.75,1.39-1.68.85l-27.84-16.07a3.61,3.61,0,0,1-1.68-2.79C206.39,104.35,207.14,104,208.07,104.5Z"/><path class="cls-20" d="M208.07,104.5l27.84,16.08a3.58,3.58,0,0,1,1.68,2.79c0,1-.75,1.39-1.68.85l-27.84-16.07a3.61,3.61,0,0,1-1.68-2.79C206.39,104.35,207.14,104,208.07,104.5Z"/><path class="cls-13" d="M214.48,70.73l21.43,12.39a3.61,3.61,0,0,1,1.68,2.8c0,1-.75,1.39-1.68.85l-21.43-12.4a3.58,3.58,0,0,1-1.68-2.79C212.8,70.57,213.55,70.19,214.48,70.73Z"/><path class="cls-20" d="M214.48,70.73l21.43,12.39a3.61,3.61,0,0,1,1.68,2.8c0,1-.75,1.39-1.68.85l-21.43-12.4a3.58,3.58,0,0,1-1.68-2.79C212.8,70.57,213.55,70.19,214.48,70.73Z"/><path class="cls-13" d="M214.48,80.09l21.43,12.4a3.58,3.58,0,0,1,1.68,2.79c0,1-.75,1.39-1.68.85L214.48,83.74a3.61,3.61,0,0,1-1.68-2.8C212.8,79.94,213.55,79.55,214.48,80.09Z"/><path class="cls-20" d="M214.48,80.09l21.43,12.4a3.58,3.58,0,0,1,1.68,2.79c0,1-.75,1.39-1.68.85L214.48,83.74a3.61,3.61,0,0,1-1.68-2.8C212.8,79.94,213.55,79.55,214.48,80.09Z"/><path class="cls-13" d="M208.07,85.78l27.84,16.07a3.61,3.61,0,0,1,1.68,2.79c0,1-.75,1.39-1.68.85L208.07,89.42a3.58,3.58,0,0,1-1.68-2.79C206.39,85.62,207.14,85.24,208.07,85.78Z"/><path class="cls-20" d="M208.07,85.78l27.84,16.07a3.61,3.61,0,0,1,1.68,2.79c0,1-.75,1.39-1.68.85L208.07,89.42a3.58,3.58,0,0,1-1.68-2.79C206.39,85.62,207.14,85.24,208.07,85.78Z"/><path class="cls-13" d="M214.48,98.82l21.43,12.39a3.61,3.61,0,0,1,1.68,2.8c0,1-.75,1.38-1.68.85l-21.43-12.39a3.61,3.61,0,0,1-1.68-2.8C212.8,98.67,213.55,98.28,214.48,98.82Z"/><path class="cls-20" d="M214.48,98.82l21.43,12.39a3.61,3.61,0,0,1,1.68,2.8c0,1-.75,1.38-1.68.85l-21.43-12.39a3.61,3.61,0,0,1-1.68-2.8C212.8,98.67,213.55,98.28,214.48,98.82Z"/><path class="cls-3" d="M191,116.23l49.51,28.58a7.38,7.38,0,0,1,3.32,5.77v113c0,2.12-1.49,3-3.32,1.92L191,236.87a7.35,7.35,0,0,1-3.33-5.76v-113C187.67,116,189.16,115.17,191,116.23Z"/><path class="cls-13" d="M195.59,126.08l4.56,2.64a3.61,3.61,0,0,1,1.68,2.79c0,1-.75,1.39-1.68.85l-4.56-2.63a3.61,3.61,0,0,1-1.68-2.8C193.91,125.93,194.66,125.55,195.59,126.08Z"/><path class="cls-20" d="M195.59,126.08l4.56,2.64a3.61,3.61,0,0,1,1.68,2.79c0,1-.75,1.39-1.68.85l-4.56-2.63a3.61,3.61,0,0,1-1.68-2.8C193.91,125.93,194.66,125.55,195.59,126.08Z"/><path class="cls-13" d="M202,139.12l4.56,2.64a3.61,3.61,0,0,1,1.68,2.79c0,1-.75,1.39-1.68.85L202,142.77a3.61,3.61,0,0,1-1.68-2.8C200.32,139,201.07,138.59,202,139.12Z"/><path class="cls-20" d="M202,139.12l4.56,2.64a3.61,3.61,0,0,1,1.68,2.79c0,1-.75,1.39-1.68.85L202,142.77a3.61,3.61,0,0,1-1.68-2.8C200.32,139,201.07,138.59,202,139.12Z"/><path class="cls-13" d="M202,148.46l4.56,2.64a3.61,3.61,0,0,1,1.68,2.79c0,1-.75,1.39-1.68.85L202,152.11a3.61,3.61,0,0,1-1.68-2.8C200.32,148.31,201.07,147.93,202,148.46Z"/><path class="cls-20" d="M202,148.46l4.56,2.64a3.61,3.61,0,0,1,1.68,2.79c0,1-.75,1.39-1.68.85L202,152.11a3.61,3.61,0,0,1-1.68-2.8C200.32,148.31,201.07,147.93,202,148.46Z"/><path class="cls-13" d="M195.59,154.17l4.56,2.63a3.61,3.61,0,0,1,1.68,2.8c0,1-.75,1.38-1.68.85l-4.56-2.64a3.61,3.61,0,0,1-1.68-2.79C193.91,154,194.66,153.63,195.59,154.17Z"/><path class="cls-20" d="M195.59,154.17l4.56,2.63a3.61,3.61,0,0,1,1.68,2.8c0,1-.75,1.38-1.68.85l-4.56-2.64a3.61,3.61,0,0,1-1.68-2.79C193.91,154,194.66,153.63,195.59,154.17Z"/><path class="cls-13" d="M208.07,133.29l27.84,16.07a3.61,3.61,0,0,1,1.68,2.8c0,1-.75,1.39-1.68.85l-27.84-16.07a3.61,3.61,0,0,1-1.68-2.8C206.39,133.14,207.14,132.76,208.07,133.29Z"/><path class="cls-20" d="M208.07,133.29l27.84,16.07a3.61,3.61,0,0,1,1.68,2.8c0,1-.75,1.39-1.68.85l-27.84-16.07a3.61,3.61,0,0,1-1.68-2.8C206.39,133.14,207.14,132.76,208.07,133.29Z"/><path class="cls-13" d="M214.48,146.33l21.43,12.4a3.6,3.6,0,0,1,1.68,2.79c0,1-.75,1.39-1.68.85L214.48,150a3.61,3.61,0,0,1-1.68-2.8C212.8,146.18,213.55,145.8,214.48,146.33Z"/><path class="cls-20" d="M214.48,146.33l21.43,12.4a3.6,3.6,0,0,1,1.68,2.79c0,1-.75,1.39-1.68.85L214.48,150a3.61,3.61,0,0,1-1.68-2.8C212.8,146.18,213.55,145.8,214.48,146.33Z"/><path class="cls-13" d="M214.48,155.7l21.43,12.39a3.61,3.61,0,0,1,1.68,2.79c0,1-.75,1.39-1.68.86l-21.43-12.4a3.61,3.61,0,0,1-1.68-2.79C212.8,155.54,213.55,155.16,214.48,155.7Z"/><path class="cls-20" d="M214.48,155.7l21.43,12.39a3.61,3.61,0,0,1,1.68,2.79c0,1-.75,1.39-1.68.86l-21.43-12.4a3.61,3.61,0,0,1-1.68-2.79C212.8,155.54,213.55,155.16,214.48,155.7Z"/><path class="cls-13" d="M208.07,161.38l27.84,16.07a3.61,3.61,0,0,1,1.68,2.8c0,1-.75,1.39-1.68.85L208.07,165a3.61,3.61,0,0,1-1.68-2.8C206.39,161.23,207.14,160.85,208.07,161.38Z"/><path class="cls-20" d="M208.07,161.38l27.84,16.07a3.61,3.61,0,0,1,1.68,2.8c0,1-.75,1.39-1.68.85L208.07,165a3.61,3.61,0,0,1-1.68-2.8C206.39,161.23,207.14,160.85,208.07,161.38Z"/><path class="cls-13" d="M202,167.27l4.56,2.64a3.58,3.58,0,0,1,1.68,2.79c0,1-.75,1.39-1.68.85L202,170.91a3.58,3.58,0,0,1-1.68-2.79C200.32,167.11,201.07,166.73,202,167.27Z"/><path class="cls-20" d="M202,167.27l4.56,2.64a3.58,3.58,0,0,1,1.68,2.79c0,1-.75,1.39-1.68.85L202,170.91a3.58,3.58,0,0,1-1.68-2.79C200.32,167.11,201.07,166.73,202,167.27Z"/><path class="cls-13" d="M202,176.61l4.56,2.63a3.61,3.61,0,0,1,1.68,2.8c0,1-.75,1.39-1.68.85L202,180.25a3.58,3.58,0,0,1-1.68-2.79C200.32,176.45,201.07,176.07,202,176.61Z"/><path class="cls-20" d="M202,176.61l4.56,2.63a3.61,3.61,0,0,1,1.68,2.8c0,1-.75,1.39-1.68.85L202,180.25a3.58,3.58,0,0,1-1.68-2.79C200.32,176.45,201.07,176.07,202,176.61Z"/><path class="cls-13" d="M214.48,174.48l21.43,12.39a3.61,3.61,0,0,1,1.68,2.8c0,1-.75,1.39-1.68.85l-21.43-12.4a3.58,3.58,0,0,1-1.68-2.79C212.8,174.32,213.55,173.94,214.48,174.48Z"/><path class="cls-20" d="M214.48,174.48l21.43,12.39a3.61,3.61,0,0,1,1.68,2.8c0,1-.75,1.39-1.68.85l-21.43-12.4a3.58,3.58,0,0,1-1.68-2.79C212.8,174.32,213.55,173.94,214.48,174.48Z"/><path class="cls-13" d="M214.48,183.84l21.43,12.4a3.58,3.58,0,0,1,1.68,2.79c0,1-.75,1.39-1.68.85l-21.43-12.39a3.61,3.61,0,0,1-1.68-2.8C212.8,183.69,213.55,183.3,214.48,183.84Z"/><path class="cls-20" d="M214.48,183.84l21.43,12.4a3.58,3.58,0,0,1,1.68,2.79c0,1-.75,1.39-1.68.85l-21.43-12.39a3.61,3.61,0,0,1-1.68-2.8C212.8,183.69,213.55,183.3,214.48,183.84Z"/><path class="cls-13" d="M195.59,201.09l4.56,2.64a3.61,3.61,0,0,1,1.68,2.79c0,1-.75,1.39-1.68.86l-4.56-2.64a3.61,3.61,0,0,1-1.68-2.79C193.91,200.94,194.66,200.56,195.59,201.09Z"/><path class="cls-20" d="M195.59,201.09l4.56,2.64a3.61,3.61,0,0,1,1.68,2.79c0,1-.75,1.39-1.68.86l-4.56-2.64a3.61,3.61,0,0,1-1.68-2.79C193.91,200.94,194.66,200.56,195.59,201.09Z"/><path class="cls-13" d="M208.07,208.31l27.84,16.07a3.61,3.61,0,0,1,1.68,2.8c0,1-.75,1.38-1.68.85L208.07,212a3.61,3.61,0,0,1-1.68-2.8C206.39,208.16,207.14,207.77,208.07,208.31Z"/><path class="cls-20" d="M208.07,208.31l27.84,16.07a3.61,3.61,0,0,1,1.68,2.8c0,1-.75,1.38-1.68.85L208.07,212a3.61,3.61,0,0,1-1.68-2.8C206.39,208.16,207.14,207.77,208.07,208.31Z"/><path class="cls-13" d="M202,214.2l4.56,2.63a3.61,3.61,0,0,1,1.68,2.8c0,1-.75,1.39-1.68.85L202,217.84a3.58,3.58,0,0,1-1.68-2.79C200.32,214,201.07,213.66,202,214.2Z"/><path class="cls-20" d="M202,214.2l4.56,2.63a3.61,3.61,0,0,1,1.68,2.8c0,1-.75,1.39-1.68.85L202,217.84a3.58,3.58,0,0,1-1.68-2.79C200.32,214,201.07,213.66,202,214.2Z"/><path class="cls-13" d="M202,223.54l4.56,2.63a3.61,3.61,0,0,1,1.68,2.8c0,1-.75,1.38-1.68.85L202,227.18a3.6,3.6,0,0,1-1.68-2.79C200.32,223.38,201.07,223,202,223.54Z"/><path class="cls-20" d="M202,223.54l4.56,2.63a3.61,3.61,0,0,1,1.68,2.8c0,1-.75,1.38-1.68.85L202,227.18a3.6,3.6,0,0,1-1.68-2.79C200.32,223.38,201.07,223,202,223.54Z"/><path class="cls-13" d="M214.48,221.41l21.43,12.39a3.61,3.61,0,0,1,1.68,2.8c0,1-.75,1.38-1.68.85l-21.43-12.4a3.6,3.6,0,0,1-1.68-2.79C212.8,221.25,213.55,220.87,214.48,221.41Z"/><path class="cls-20" d="M214.48,221.41l21.43,12.39a3.61,3.61,0,0,1,1.68,2.8c0,1-.75,1.38-1.68.85l-21.43-12.4a3.6,3.6,0,0,1-1.68-2.79C212.8,221.25,213.55,220.87,214.48,221.41Z"/><path class="cls-13" d="M214.48,230.77l21.43,12.39a3.61,3.61,0,0,1,1.68,2.8c0,1-.75,1.39-1.68.85l-21.43-12.4a3.58,3.58,0,0,1-1.68-2.79C212.8,230.61,213.55,230.23,214.48,230.77Z"/><path class="cls-20" d="M214.48,230.77l21.43,12.39a3.61,3.61,0,0,1,1.68,2.8c0,1-.75,1.39-1.68.85l-21.43-12.4a3.58,3.58,0,0,1-1.68-2.79C212.8,230.61,213.55,230.23,214.48,230.77Z"/><path class="cls-13" d="M202,185.9l4.56,2.63a3.61,3.61,0,0,1,1.68,2.8c0,1-.75,1.39-1.68.85L202,189.54a3.58,3.58,0,0,1-1.68-2.79C200.32,185.74,201.07,185.36,202,185.9Z"/><path class="cls-20" d="M202,185.9l4.56,2.63a3.61,3.61,0,0,1,1.68,2.8c0,1-.75,1.39-1.68.85L202,189.54a3.58,3.58,0,0,1-1.68-2.79C200.32,185.74,201.07,185.36,202,185.9Z"/><path class="cls-13" d="M195.59,191.6l4.56,2.64a3.58,3.58,0,0,1,1.68,2.79c0,1-.75,1.39-1.68.85l-4.56-2.63a3.61,3.61,0,0,1-1.68-2.8C193.91,191.45,194.66,191.06,195.59,191.6Z"/><path class="cls-20" d="M195.59,191.6l4.56,2.64a3.58,3.58,0,0,1,1.68,2.79c0,1-.75,1.39-1.68.85l-4.56-2.63a3.61,3.61,0,0,1-1.68-2.8C193.91,191.45,194.66,191.06,195.59,191.6Z"/><path class="cls-13" d="M214.48,193.13l21.43,12.4a3.58,3.58,0,0,1,1.68,2.79c0,1-.75,1.39-1.68.85l-21.43-12.39a3.61,3.61,0,0,1-1.68-2.8C212.8,193,213.55,192.59,214.48,193.13Z"/><path class="cls-20" d="M214.48,193.13l21.43,12.4a3.58,3.58,0,0,1,1.68,2.79c0,1-.75,1.39-1.68.85l-21.43-12.39a3.61,3.61,0,0,1-1.68-2.8C212.8,193,213.55,192.59,214.48,193.13Z"/><path class="cls-13" d="M208.07,198.82l27.84,16.07a3.61,3.61,0,0,1,1.68,2.79c0,1-.75,1.39-1.68.85l-27.84-16.07a3.58,3.58,0,0,1-1.68-2.79C206.39,198.66,207.14,198.28,208.07,198.82Z"/><path class="cls-20" d="M208.07,198.82l27.84,16.07a3.61,3.61,0,0,1,1.68,2.79c0,1-.75,1.39-1.68.85l-27.84-16.07a3.58,3.58,0,0,1-1.68-2.79C206.39,198.66,207.14,198.28,208.07,198.82Z"/><path class="cls-13" d="M195.59,229.37l4.56,2.64a3.58,3.58,0,0,1,1.68,2.79c0,1-.75,1.39-1.68.85L195.59,233a3.61,3.61,0,0,1-1.68-2.8C193.91,229.21,194.66,228.83,195.59,229.37Z"/><path class="cls-20" d="M195.59,229.37l4.56,2.64a3.58,3.58,0,0,1,1.68,2.79c0,1-.75,1.39-1.68.85L195.59,233a3.61,3.61,0,0,1-1.68-2.8C193.91,229.21,194.66,228.83,195.59,229.37Z"/><path class="cls-13" d="M208.07,236.59l27.84,16.07a3.6,3.6,0,0,1,1.68,2.79c0,1-.75,1.39-1.68.85l-27.84-16.07a3.6,3.6,0,0,1-1.68-2.79C206.39,236.43,207.14,236.05,208.07,236.59Z"/><path class="cls-20" d="M208.07,236.59l27.84,16.07a3.6,3.6,0,0,1,1.68,2.79c0,1-.75,1.39-1.68.85l-27.84-16.07a3.6,3.6,0,0,1-1.68-2.79C206.39,236.43,207.14,236.05,208.07,236.59Z"/></g></g><g id="Window-3" data-name="Window"><g class="cls-21"><path class="cls-9" d="M466.47,275V460.4a8.51,8.51,0,0,0,3.86,6.67l106.49,61.44a2.51,2.51,0,0,0,1.28.37,2.14,2.14,0,0,0,.49-.07,1.28,1.28,0,0,0,.33-.11l.2-.11.23-.16a1.81,1.81,0,0,0,.21-.18,3.11,3.11,0,0,0,.71-1,4.8,4.8,0,0,0,.4-1.94V340.85a8.54,8.54,0,0,0-3.85-6.67L470.33,272.8a2.82,2.82,0,0,0-2.59-.33,1.77,1.77,0,0,0-.33.19l0,0a1.18,1.18,0,0,0-.25.25.49.49,0,0,0-.11.14.49.49,0,0,0-.13.2,1.75,1.75,0,0,0-.23.5,1.53,1.53,0,0,0-.09.34.09.09,0,0,0,0,.07,1.43,1.43,0,0,0-.06.36A3.64,3.64,0,0,0,466.47,275Z"/></g><path class="cls-13" d="M467.74,272.47a2.82,2.82,0,0,1,2.59.33l106.49,61.38a8.54,8.54,0,0,1,3.85,6.67v12.59l6.14-3.55V337.4a8.48,8.48,0,0,0-3.84-6.66L476.46,269.36a2.66,2.66,0,0,0-2.79-.23C473,269.55,468.56,272,467.74,272.47Z"/><path class="cls-13" d="M466.48,275c0-2.43,1.73-3.41,3.85-2.19l106.49,61.38a8.48,8.48,0,0,1,3.85,6.66v12.59L466.48,287.63Z"/><g class="cls-14"><path class="cls-15" d="M470.33,272.81l106.49,61.38a7.84,7.84,0,0,1,2.71,2.85l6.11-3.5a7.8,7.8,0,0,0-2.68-2.81L476.47,269.35a2.7,2.7,0,0,0-2.8-.22c-.69.42-5.11,2.9-5.92,3.34A2.77,2.77,0,0,1,470.33,272.81Z"/></g><path class="cls-1" d="M586.82,349.91V337.39a7.92,7.92,0,0,0-1.17-3.85L579.52,337a7.83,7.83,0,0,1,1.15,3.83v12.58Z"/><path class="cls-9" d="M575.07,339.36a5.76,5.76,0,0,1,2.18,4.61c0,1.85-1,2.78-2.18,2.09s-2.17-2.75-2.17-4.6S573.87,338.67,575.07,339.36Z"/><path class="cls-9" d="M567.24,334.84c1.2.69,2.18,2.75,2.18,4.6s-1,2.79-2.18,2.09-2.17-2.75-2.17-4.6S566,334.14,567.24,334.84Z"/><path class="cls-9" d="M559.41,330.31c1.2.69,2.18,2.75,2.18,4.6s-1,2.79-2.18,2.09-2.17-2.75-2.17-4.6S558.21,329.61,559.41,330.31Z"/><g class="cls-22"><path class="cls-3" d="M579.26,528.52c.14-.09.3-.17.48-.27.35-.22.76-.45,1.19-.67v0l.64-.36,0,0,1-.58,2.07-1.15c.23-.14.41-.22.48-.26a2.21,2.21,0,0,0,.66-.53,3,3,0,0,0,.52-.79,4.7,4.7,0,0,0,.44-2V349.89l-6.14,3.55V525.29a5.46,5.46,0,0,1-.4,1.94,3.11,3.11,0,0,1-.71,1,.63.63,0,0,1-.21.18A.26.26,0,0,1,579.26,528.52Z"/></g><path class="cls-13" d="M475.32,308.9a.58.58,0,0,1,.2-.49l2.77-2.53a.14.14,0,0,1,.12,0l.07,0a.62.62,0,0,1,.22.27.92.92,0,0,1,.09.39v1.92a1.66,1.66,0,0,1-.06.53.7.7,0,0,1-.19.3l-1.46,1.34,1.46,3a2.65,2.65,0,0,1,.19.53,2.38,2.38,0,0,1,.06.59v1.93a.38.38,0,0,1-.09.28.18.18,0,0,1-.22,0l-.07-.06a.41.41,0,0,1-.12-.17l-2.77-5.72a1.57,1.57,0,0,1-.2-.72Z"/><path class="cls-13" d="M485.45,306.23a.64.64,0,0,1,.21-.32c.09-.09.23-.08.4,0l1,.6a.49.49,0,0,1,.22.26.92.92,0,0,1,.09.39.57.57,0,0,1,0,.18l-4.74,14.75a.83.83,0,0,1-.2.32q-.13.13-.42,0l-1-.58a.52.52,0,0,1-.21-.26.81.81,0,0,1-.1-.39.57.57,0,0,1,0-.18Z"/><path class="cls-13" d="M492.79,320.41a.57.57,0,0,1-.2.49l-2.76,2.54a.13.13,0,0,1-.13,0l-.07,0a.62.62,0,0,1-.22-.27.85.85,0,0,1-.09-.38v-1.93a1.7,1.7,0,0,1,.06-.53.67.67,0,0,1,.19-.29l1.46-1.34-1.46-3a2.45,2.45,0,0,1-.19-.53,2.32,2.32,0,0,1-.06-.59v-1.92a.4.4,0,0,1,.09-.29.18.18,0,0,1,.22,0l.07.05a.67.67,0,0,1,.13.17l2.76,5.73a1.57,1.57,0,0,1,.2.72Z"/><path class="cls-13" d="M500.48,328a.66.66,0,0,1,.27.33,1,1,0,0,1,.11.47v2.12a.46.46,0,0,1-.11.35.21.21,0,0,1-.27,0l-1.3-.75a.71.71,0,0,1-.27-.33,1.15,1.15,0,0,1-.11-.47v-2.12a.51.51,0,0,1,.11-.35.21.21,0,0,1,.27,0Z"/><path class="cls-13" d="M504.85,330.49a.77.77,0,0,1,.27.33,1.15,1.15,0,0,1,.11.47v2.12a.51.51,0,0,1-.11.35.21.21,0,0,1-.27,0l-1.3-.76a.66.66,0,0,1-.27-.33,1,1,0,0,1-.11-.47V330.1a.46.46,0,0,1,.11-.35.21.21,0,0,1,.27,0Z"/><path class="cls-13" d="M509.22,333a.77.77,0,0,1,.27.33,1.19,1.19,0,0,1,.11.47v2.12a.51.51,0,0,1-.11.35.22.22,0,0,1-.27,0l-1.31-.76a.72.72,0,0,1-.26-.32,1.07,1.07,0,0,1-.12-.48v-2.12a.43.43,0,0,1,.12-.34.19.19,0,0,1,.26,0Z"/><path class="cls-13" d="M476.49,325.7l64,36.94a2.91,2.91,0,0,1,1.37,2.27c0,.82-.61,1.13-1.37.69l-64-36.94a2.92,2.92,0,0,1-1.37-2.27C475.12,325.57,475.73,325.26,476.49,325.7Z"/><path class="cls-5" d="M497,373.11l64,36.94a2.91,2.91,0,0,1,1.37,2.27c0,.82-.61,1.13-1.37.69l-64-36.94a2.92,2.92,0,0,1-1.37-2.27C495.65,373,496.26,372.67,497,373.11Z"/><path class="cls-5" d="M497,396.81l30.62,17.7a2.91,2.91,0,0,1,1.37,2.27c0,.82-.61,1.13-1.37.69L497,399.77a2.91,2.91,0,0,1-1.37-2.27C495.65,396.68,496.26,396.38,497,396.81Z"/><path class="cls-13" d="M545.77,365.7l25.5,14.66a3,3,0,0,1,1.37,2.27c0,.82-.62,1.13-1.37.69l-25.49-14.66a2.92,2.92,0,0,1-1.37-2.27C544.41,365.57,545,365.26,545.77,365.7Z"/><path class="cls-13" d="M476.49,456.06l64,36.95a2.91,2.91,0,0,1,1.37,2.27c0,.82-.61,1.13-1.37.69l-64-36.94a2.94,2.94,0,0,1-1.37-2.27C475.12,455.94,475.73,455.63,476.49,456.06Z"/><path class="cls-13" d="M545.77,496.07l25.5,14.66a3,3,0,0,1,1.37,2.27c0,.82-.62,1.13-1.37.69L545.78,499a2.92,2.92,0,0,1-1.37-2.27C544.41,495.94,545,495.63,545.77,496.07Z"/><path class="cls-13" d="M545.77,460.57l25.5,14.67a2.94,2.94,0,0,1,1.37,2.27c0,.82-.62,1.12-1.37.69l-25.49-14.66a2.94,2.94,0,0,1-1.37-2.28C544.41,460.45,545,460.14,545.77,460.57Z"/><path class="cls-13" d="M545.77,472.42l25.5,14.67a2.94,2.94,0,0,1,1.37,2.27c0,.82-.62,1.12-1.37.69l-25.49-14.67a2.91,2.91,0,0,1-1.37-2.27C544.41,472.3,545,472,545.77,472.42Z"/><path class="cls-13" d="M524,448l14.32,8.27a2.91,2.91,0,0,1,1.37,2.27c0,.82-.61,1.13-1.37.69L524,451a2.92,2.92,0,0,1-1.37-2.27C522.67,447.86,523.28,447.55,524,448Z"/><path class="cls-13" d="M476.49,337.57l37.32,21.54a2.94,2.94,0,0,1,1.37,2.27c0,.82-.62,1.13-1.37.69l-37.32-21.53a2.92,2.92,0,0,1-1.37-2.27C475.12,337.45,475.73,337.14,476.49,337.57Z"/><path class="cls-17" d="M476.49,337.57l37.32,21.54a2.94,2.94,0,0,1,1.37,2.27c0,.82-.62,1.13-1.37.69l-37.32-21.53a2.92,2.92,0,0,1-1.37-2.27C475.12,337.45,475.73,337.14,476.49,337.57Z"/><path class="cls-13" d="M476.49,349.41l12.66,7.3a2.94,2.94,0,0,1,1.37,2.27c0,.82-.62,1.13-1.37.69l-12.66-7.3a2.92,2.92,0,0,1-1.37-2.27C475.12,349.28,475.73,349,476.49,349.41Z"/><path class="cls-18" d="M476.49,349.41l12.66,7.3a2.94,2.94,0,0,1,1.37,2.27c0,.82-.62,1.13-1.37.69l-12.66-7.3a2.92,2.92,0,0,1-1.37-2.27C475.12,349.28,475.73,349,476.49,349.41Z"/><path class="cls-13" d="M476.49,361.26l12.66,7.3a3,3,0,0,1,1.37,2.27c0,.82-.62,1.13-1.37.69l-12.66-7.3a2.92,2.92,0,0,1-1.37-2.27C475.12,361.13,475.73,360.82,476.49,361.26Z"/><path class="cls-18" d="M476.49,361.26l12.66,7.3a2.94,2.94,0,0,1,1.37,2.27c0,.82-.62,1.13-1.37.69l-12.66-7.3a2.92,2.92,0,0,1-1.37-2.27C475.12,361.13,475.73,360.82,476.49,361.26Z"/><path class="cls-13" d="M476.49,373.11l12.66,7.3a3,3,0,0,1,1.37,2.27c0,.82-.62,1.13-1.37.69l-12.66-7.3a2.91,2.91,0,0,1-1.37-2.27C475.12,373,475.73,372.67,476.49,373.11Z"/><path class="cls-18" d="M476.49,373.11l12.66,7.3a2.94,2.94,0,0,1,1.37,2.27c0,.82-.62,1.13-1.37.69l-12.66-7.3a2.92,2.92,0,0,1-1.37-2.27C475.12,373,475.73,372.67,476.49,373.11Z"/><path class="cls-13" d="M497,385l37.32,21.53a3,3,0,0,1,1.37,2.27c0,.82-.62,1.13-1.37.69L497,387.92a2.91,2.91,0,0,1-1.37-2.27C495.65,384.83,496.26,384.52,497,385Z"/><path class="cls-13" d="M539.64,409.55l16.23,9.4a3,3,0,0,1,1.37,2.27c0,.82-.62,1.13-1.37.69l-16.23-9.4a2.91,2.91,0,0,1-1.37-2.27C538.27,409.42,538.88,409.11,539.64,409.55Z"/><path class="cls-17" d="M497,385l37.32,21.53a3,3,0,0,1,1.37,2.27c0,.82-.62,1.13-1.37.69L497,387.92a2.91,2.91,0,0,1-1.37-2.27C495.65,384.83,496.26,384.52,497,385Z"/><path class="cls-17" d="M539.64,409.55l16.23,9.4a3,3,0,0,1,1.37,2.27c0,.82-.62,1.13-1.37.69l-16.23-9.4a2.91,2.91,0,0,1-1.37-2.27C538.27,409.42,538.88,409.11,539.64,409.55Z"/><path class="cls-13" d="M476.49,385l12.66,7.3a3,3,0,0,1,1.37,2.27c0,.82-.62,1.13-1.37.7l-12.66-7.31a2.91,2.91,0,0,1-1.37-2.27C475.12,384.84,475.73,384.53,476.49,385Z"/><path class="cls-18" d="M476.49,385l12.66,7.3a3,3,0,0,1,1.37,2.27c0,.82-.62,1.13-1.37.7l-12.66-7.3a2.94,2.94,0,0,1-1.37-2.28C475.12,384.84,475.73,384.53,476.49,385Z"/><path class="cls-13" d="M519.11,362.17l16.23,9.4a2.91,2.91,0,0,1,1.37,2.27c0,.82-.61,1.13-1.37.69l-16.23-9.4a3,3,0,0,1-1.37-2.27C517.74,362,518.36,361.73,519.11,362.17Z"/><path class="cls-17" d="M519.11,362.17l16.23,9.4a2.91,2.91,0,0,1,1.37,2.27c0,.82-.61,1.13-1.37.69l-16.23-9.4a3,3,0,0,1-1.37-2.27C517.74,362,518.36,361.73,519.11,362.17Z"/><path class="cls-10" d="M512.41,417.54l37.33,21.53a2.92,2.92,0,0,1,1.36,2.27c0,.82-.61,1.13-1.36.69L512.41,420.5a2.94,2.94,0,0,1-1.36-2.27C511.05,417.41,511.66,417.1,512.41,417.54Z"/><path class="cls-10" d="M534,441.87l37.32,21.53a3,3,0,0,1,1.37,2.27c0,.82-.62,1.13-1.37.69L534,444.83a2.91,2.91,0,0,1-1.37-2.27C532.58,441.74,533.19,441.43,534,441.87Z"/><path class="cls-10" d="M555,442.13l16.23,9.4a3,3,0,0,1,1.37,2.27c0,.82-.62,1.13-1.37.69L555,445.09a2.91,2.91,0,0,1-1.37-2.27C553.67,442,554.28,441.69,555,442.13Z"/><path class="cls-5" d="M555,489.07l16.23,9.4a3,3,0,0,1,1.37,2.27c0,.82-.62,1.13-1.37.7L555,492a2.94,2.94,0,0,1-1.37-2.28C553.67,489,554.28,488.64,555,489.07Z"/><path class="cls-13" d="M497,361.26l37.32,21.53a3,3,0,0,1,1.37,2.27c0,.82-.62,1.13-1.37.69L497,364.22a2.91,2.91,0,0,1-1.37-2.27C495.65,361.13,496.26,360.82,497,361.26Z"/><path class="cls-17" d="M497,361.26l37.32,21.53a3,3,0,0,1,1.37,2.27c0,.82-.62,1.13-1.37.69L497,364.22a2.91,2.91,0,0,1-1.37-2.27C495.65,361.13,496.26,360.82,497,361.26Z"/><path class="cls-13" d="M539.64,385.85l16.23,9.4a3,3,0,0,1,1.37,2.27c0,.82-.62,1.13-1.37.69l-16.23-9.4a2.91,2.91,0,0,1-1.37-2.27C538.27,385.72,538.88,385.41,539.64,385.85Z"/><path class="cls-17" d="M539.64,385.85l16.23,9.4a3,3,0,0,1,1.37,2.27c0,.82-.62,1.13-1.37.69l-16.23-9.4a2.91,2.91,0,0,1-1.37-2.27C538.27,385.72,538.88,385.41,539.64,385.85Z"/></g><g id="Mouse"><path class="cls-1" d="M285.25,521.64l22.87,13.2c7.21,4.17,18.51,3.57,25.25-1.33L371.09,506c6.74-4.89,6.35-12.25-.85-16.42l-11.47-6.65c-7.2-4.17-19.07-4.53-26.52-.8l-46.58,25.26C278.23,511.08,278,517.48,285.25,521.64Z"/><path class="cls-3" d="M371.72,494l-26.1,20.41-19.27,15.07a17.78,17.78,0,0,1-15.28-.45L290.6,517.2a0,0,0,0,1,0,0l-.12-.06c-7.18-4.18-8.87-13.89-4.13-20.71.19-.29.39-.56.6-.84a27.22,27.22,0,0,1,16.46-10.43l10.37-2.08c16.79-3.41,30.57-5.06,32.17-4l25.65,14.86A.23.23,0,0,1,371.72,494Z"/><path class="cls-23" d="M357.13,505.41l1.46-1.15-23-13.29,20.15-6.24-2-1.17-20.14,6.23-13.73-7.92c-.86.15-1.73.32-2.6.49Z"/><path class="cls-2" d="M328.61,528.24l.12-.09a0,0,0,0,1,0,0l18.33-13.24L371.84,497V494.2a.23.23,0,0,0-.12-.21.23.23,0,0,0-.15-.06c-1.84-.63-12.57,2.59-25.53,7.75l-8.59,3.41a26.49,26.49,0,0,0-7.33,4.34,27.3,27.3,0,0,0-9.92,21.07V531a16.78,16.78,0,0,0,6.15-1.48Z"/></g></g></svg>