<svg id="Capa_1" data-name="Capa 1" xmlns="http://www.w3.org/2000/svg" viewBox="0 0 281.88 277.56"><defs><style>.cls-1{fill:#fff;}</style></defs><path class="cls-1" d="M167.39,205.11c2.6-.42,5.1-.69,7.53-1.23,5-1.14,10.13-2.12,15-3.68,23-7.34,35.79-23.51,39.64-47,1.69-10.34,2.26-20.73.16-31.13a51.18,51.18,0,0,0-11.16-23.1,4.79,4.79,0,0,1-1.12-5.08c3.32-11.11,2.2-22.08-1.43-32.93-.6-1.79-1.69-2.79-3.48-2.43-5.14,1-10.5,1.61-15.28,3.55-6.21,2.52-12,6-17.86,9.43A7.88,7.88,0,0,1,173,72.59a132.65,132.65,0,0,0-64.19.11,6.49,6.49,0,0,1-5.56-1c-9.18-5.87-18.58-11.3-29.61-13-.73-.11-1.47-.15-2.2-.27-3.07-.48-4.78.57-5.73,3.78-3.18,10.76-4,21.49-.83,32.4a4.58,4.58,0,0,1-.82,3.62c-10.51,12.81-14.15,27.61-12.59,43.79A118,118,0,0,0,54.7,162c5.06,18.49,16.87,31.16,35,37.39,6.83,2.35,14.09,3.46,21.16,5.11,1.2.28,2.43.41,4.15.69-4.91,5.22-7.2,11.11-8.36,17.56a3.54,3.54,0,0,1-2,2.06C89.37,231,75.09,228,66,213.08c-4.69-7.68-10.82-13.51-20-15.09a16.13,16.13,0,0,0-6.22.33c-2.64.61-3.08,2.33-1.28,4.43A14.58,14.58,0,0,0,42,205.86c7.46,4.37,12.27,11,15.28,18.81,5.43,14.12,16.24,20.18,30.53,21.06,4.69.29,9.45-.5,14.17-.83,1.12-.08,2.23-.28,3.94-.5,0,2.74,0,5.13,0,7.52,0,5.69.15,11.39.17,17.08,0,7.13-4.23,10.14-11,7.75a137.69,137.69,0,0,1-65.39-47.38C-12.17,174.29-9.46,99.52,36,47.41,86-10,175-16.21,232.26,33.86c34.18,29.85,50.6,67.83,49.58,113.09-1.3,58.12-39.34,110.14-94.16,129.56-7.75,2.75-11.79-.11-11.74-8.35.06-11.92.16-23.83.22-35.75,0-7.14-.76-14.14-4.23-20.53C170.69,209.6,169,207.55,167.39,205.11Z"/></svg>