<svg id="Capa_1" data-name="Capa 1" xmlns="http://www.w3.org/2000/svg" viewBox="0 0 270.75 193.52"><defs><style>.cls-1{fill:#fff;}</style></defs><path class="cls-1" d="M135.71,124.73,261.82,3c-4-2.8-8.2-3-12.4-3H141.09Q93.32,0,45.53,0c-9.35,0-18.7,0-28,.23A15.81,15.81,0,0,0,7.32,4.66Zm125.44,66.81.05-.89-85.44-79.9c-.87.79-1.5,1.34-2.09,1.91q-15.54,15-31.07,29.9c-4.4,4.22-9.1,4.21-13.52.09l-24.68-23-8.29-7.7L12.87,192.34a35.53,35.53,0,0,0,4.85,1c3.72.16,7.44.19,11.17.19q51.2,0,102.41,0,44.92,0,89.86,0c10.8,0,21.59,0,32.38-.21C256.09,193.25,258.62,192.16,261.15,191.54ZM.54,178.48l.67.23L83,99.82C55.27,74,27.85,48.41,0,22.45c0,5.69,0,10.77,0,15.84q0,67.44,0,134.88A53,53,0,0,0,.54,178.48Zm270.21-2.91V18.83c-27.68,26.71-55,53.08-82.45,79.6Z"/><path class="cls-1" d="M135.71,124.73,7.32,4.66A15.81,15.81,0,0,1,17.49.24C26.83,0,36.18,0,45.53,0q47.79,0,95.56,0H249.42c4.2,0,8.36.16,12.4,3Z"/><path class="cls-1" d="M261.15,191.54c-2.53.62-5.06,1.71-7.61,1.76-10.79.24-21.58.21-32.38.21q-44.92,0-89.86,0-51.21,0-102.41,0c-3.73,0-7.45,0-11.17-.19a35.53,35.53,0,0,1-4.85-1l83.24-80.43,8.29,7.7,24.68,23c4.42,4.12,9.12,4.13,13.52-.09q15.57-14.92,31.07-29.9c.59-.57,1.22-1.12,2.09-1.91l85.44,79.9Z"/><path class="cls-1" d="M.54,178.48A53,53,0,0,1,0,173.17Q0,105.73,0,38.29c0-5.07,0-10.15,0-15.84C27.85,48.41,55.27,74,83,99.82L1.21,178.71Z"/><path class="cls-1" d="M270.75,175.57,188.3,98.43c27.46-26.52,54.77-52.89,82.45-79.6Z"/></svg>