<svg id="Capa_1" data-name="Capa 1" xmlns="http://www.w3.org/2000/svg" viewBox="0 0 257.87 312.28"><defs><style>.cls-1{fill:#19e003;}.cls-2{fill:#fff;}</style></defs><path class="cls-1" d="M182.16,251.22a8.33,8.33,0,0,1-.89,4.21c-11.88,20.69-29.79,34.95-50.31,46.27a4.72,4.72,0,0,1-3.91,0C106.32,290.35,88.31,275.94,76.41,255a8.44,8.44,0,0,1-.52-5.49c-3.35,2.43-4.82,6.74-7.61,9.74,13.28,23,32.78,38.62,55.11,51.31,4,2.3,7.25,2.22,11.25,0,22.28-12.64,41.67-28.34,54.93-51.08A25.86,25.86,0,0,0,182.16,251.22Z"/><path class="cls-2" d="M254.5,213.37c-3.78-8.8-8.06-17.4-12.31-26-7.69-15.52-15.13-31.19-23.42-46.39s-21.64-23.18-38.87-23.35q-51-.49-102,0c-16,.17-28.91,7.27-37.36,21.1-4.79,7.85-8.92,16.13-13,24.39-8.14,16.54-16.41,33-23.93,49.86-8,18-2.68,30.32,15.46,37.56,8.56,3.41,17.18,6.66,25.74,10.08,7.66,3.06,15.16,3.48,23-1.17l.37-.22,0,0c2.79-3,4.26-7.31,7.61-9.74,0-.09,0-.18,0-.26.06-.24.13-.47.2-.68,4.54-13.33-.7-26-13.57-31.66-7.25-3.2-14.59-6.19-21.93-9.19-2.86-1.17-5.87-1.95-7.51,1.83-1.71,3.94,1.26,5.32,4,6.5,7.62,3.26,15.42,6.15,23,9.62,8.14,3.76,10.94,11.8,7.44,20-3,6.93-9.1,10.15-16.23,7.6-11.1-4-22.12-8.24-32.94-12.92C10.2,236.82,7.7,231,9.9,222.25a52.2,52.2,0,0,1,3.67-9.81Q27.25,184,41.15,155.7c1.62-3.31,3.48-6.5,5.31-9.7,7.7-13.43,19.45-19.7,34.76-19.68q23.85,0,47.69,0c15.9,0,31.79,0,47.69,0,15.57,0,27.89,6.17,35,20.1q18.24,35.72,35.15,72.1c5.23,11.3,1.58,18.48-10.09,23.25-9.21,3.76-18.52,7.3-27.81,10.87-8.32,3.19-14.77.89-18.16-6.38-3.83-8.2-1.42-16.36,6.56-20.22,7.3-3.52,14.91-6.39,22.38-9.56,1.19-.5,2.83-.74,3.42-1.64,1-1.49,2.13-3.78,1.61-5.08s-3.51-3.09-4.54-2.64c-11,4.72-22.58,8.59-32.27,15.24-8.54,5.86-9.59,16-6.13,26.15a9.28,9.28,0,0,1,.44,2.72,25.86,25.86,0,0,1,7.41,8.24l.1-.15c8.62,5.31,17,4.14,25.57.45,7.95-3.43,16.19-6.16,24.21-9.45C256.94,243.13,262,230.86,254.5,213.37Z"/><path class="cls-2" d="M129,105.69c-29.81-.1-53.32-23.45-53.29-52.95C75.7,23.41,99.55-.07,129.25,0a53,53,0,0,1,53,53.36C182.08,82.57,158.46,105.78,129,105.69Zm-.12-9c24.69.06,44.38-19.14,44.52-43.4A44.15,44.15,0,0,0,129.09,9c-24.47,0-44.42,19.47-44.55,43.54C84.4,77,104,96.64,128.84,96.71Z"/><path class="cls-1" d="M119.85,225.4c9.71-9.8,18.9-19.14,28.15-28.42,8.42-8.47,12.38-8.48,20.75-.18,1.19,1.17,2.42,2.29,3.53,3.53,4.4,4.86,4.56,10-.08,14.76q-22.48,23-45.26,45.68c-4.86,4.85-9.16,4.87-14,.14Q99,247.36,85.47,233.46c-4.55-4.69-4.49-9.5,0-14.22,10.36-10.88,13.65-16.41,27.58-.92C115,220.51,117.14,222.59,119.85,225.4Zm37.28-25.17c-9.81,9.92-19.38,19.64-29,29.33-8.23,8.3-8.33,8.37-16.29.14-3.81-3.93-7.22-8.25-10.42-11.95l-10,8.76,27.29,27.24,47.34-46.13Z"/><path class="cls-1" d="M62.29,174.26c0,7.85,0,15,0,22.24,0,3.11-.82,5.68-4.4,5.79s-4.55-2.32-4.52-5.54c.08-8.12-.26-16.26.23-24.36.13-2.09,2.32-5.15,4.25-5.85,22.51-8.15,45.14-16,67.8-23.71a11.55,11.55,0,0,1,6.91,0c22.3,7.63,44.5,15.55,66.81,23.15,3.84,1.31,5.28,3.29,5.2,7.2-.18,7.94.2,15.89-.25,23.81-.11,1.93-2.29,5-4,5.32-3.23.61-4.72-2.09-4.72-5.32,0-6.09-.17-12.19.05-18.28.12-3.22-.81-4.91-4-6C171.8,166,152,159,132.17,152.12a8.85,8.85,0,0,0-5.33-.22C105.41,159.22,84,166.7,62.29,174.26Z"/></svg>