<svg id="Capa_1" data-name="Capa 1" xmlns="http://www.w3.org/2000/svg" xmlns:xlink="http://www.w3.org/1999/xlink" viewBox="0 0 154.16 313"><defs><style>.cls-1{fill:#fff;}.cls-2{isolation:isolate;}.cls-3{fill:none;stroke:#19e003;stroke-miterlimit:10;stroke-width:0.75px;}</style><symbol id="app" data-name="app" viewBox="0 0 66.81 134"><path class="cls-1" d="M66.81,31.81h-.75V11.67A11.67,11.67,0,0,0,54.39,0H11.67A11.67,11.67,0,0,0,0,11.67H0V122.33A11.67,11.67,0,0,0,11.67,134H54.39a11.68,11.68,0,0,0,11.67-11.67V46.11h.75Z"/><path class="cls-2" d="M54.89,3H49.21a4.11,4.11,0,0,1-3.79,5.65H21.19A4.09,4.09,0,0,1,17.4,3H11.92A8.73,8.73,0,0,0,3.2,11.73V122.27A8.71,8.71,0,0,0,11.92,131h43a8.71,8.71,0,0,0,8.72-8.72h0V11.73A8.72,8.72,0,0,0,54.89,3Z"/><path class="cls-3" d="M26,74.32H22.1V69.86H16v4.46H12.16V65.2A6.91,6.91,0,0,1,14,60.14a6.8,6.8,0,0,1,5.1-1.83,6.87,6.87,0,0,1,5.13,1.83A6.88,6.88,0,0,1,26,65.2ZM22.1,66.5V65.2q0-3.29-3.08-3.29C17,61.91,16,63,16,65.2v1.3Z"/><path class="cls-3" d="M32.73,74.32H28.84V58.62H35a6.39,6.39,0,0,1,4.62,1.5,5.35,5.35,0,0,1,1.55,4,5.41,5.41,0,0,1-1.55,4A6.39,6.39,0,0,1,35,69.69H32.73Zm0-8.23h2.35q2.16,0,2.16-2c0-1.27-.72-1.92-2.16-1.92H32.73Z"/><path class="cls-3" d="M47.18,74.32H43.29V58.62h6.16a6.39,6.39,0,0,1,4.62,1.5,5.31,5.31,0,0,1,1.55,4,5.37,5.37,0,0,1-1.55,4,6.39,6.39,0,0,1-4.62,1.51H47.18Zm0-8.23h2.35q2.16,0,2.16-2c0-1.27-.72-1.92-2.16-1.92H47.18Z"/></symbol></defs><use width="66.81" height="134" transform="scale(2.31 2.34)" xlink:href="#app"/></svg>