<svg id="Capa_1" data-name="Capa 1" xmlns="http://www.w3.org/2000/svg" xmlns:xlink="http://www.w3.org/1999/xlink" viewBox="0 0 316.07 313"><defs><style>.cls-1,.cls-2{fill:none;stroke-miterlimit:10;}.cls-1{stroke:#19e003;}.cls-2{stroke:#fff;}</style><symbol id="pagina_web" data-name="pagina web" viewBox="0 0 102.4 102.49"><path class="cls-1" d="M100.39,39.52a48,48,0,0,1,0,23.94H2a50.47,50.47,0,0,1,0-23.94ZM86.81,52.94c-.26-.57-.4-.83-.51-1.11-.88-2.42-1.68-4.88-2.68-7.25a2.4,2.4,0,0,0-1.69-1.24c-.5,0-1.28.65-1.54,1.21-.65,1.37-1.08,2.85-1.6,4.28s-1,2.55-1.59,4.21c-1.13-3.12-2.11-5.78-3-8.45A1.68,1.68,0,0,0,72,43.31c-1.18.33-1.3,1.29-1,2.3s.73,2.08,1.11,3.12c1.15,3.22,2.26,6.46,3.52,9.63a2.28,2.28,0,0,0,1.64,1.28c.57,0,1.23-.74,1.66-1.3a6.61,6.61,0,0,0,.66-1.76c.77-2.09,1.54-4.18,2.45-6.68,1.09,3,1.93,5.62,3,8.14.29.69,1.15,1.56,1.76,1.58s1.45-.86,1.77-1.54c.76-1.61,1.28-3.34,1.89-5,.87-2.42,1.75-4.85,2.61-7.28.34-1,.31-2-.8-2.41a1.63,1.63,0,0,0-2.34,1.19c-.11.35-.25.69-.37,1C88.63,48,87.77,50.3,86.81,52.94Zm-71.15.16c-1.15-3.17-2.15-5.88-3.13-8.59a1.63,1.63,0,0,0-2.23-1.17c-1.12.38-1.27,1.34-.91,2.34,1.51,4.27,3,8.53,4.64,12.76a2.12,2.12,0,0,0,1.55,1.21,2.36,2.36,0,0,0,1.68-1.24c1-2.27,1.73-4.63,2.58-6.95a13.62,13.62,0,0,1,.67-1.36c1.08,3,2,5.67,3,8.3a2.14,2.14,0,0,0,1.52,1.24c.6,0,1.25-.67,1.73-1.19A4.16,4.16,0,0,0,27.39,57c1.3-3.62,2.61-7.23,3.9-10.85.39-1.1.66-2.29-.76-2.8s-2,.37-2.4,1.59c-.31,1-.68,2-1,3-.59,1.59-1.19,3.17-1.93,5.14-1.08-3-1.93-5.62-3-8.14-.28-.68-1.17-1.55-1.78-1.55s-1.46.88-1.75,1.57C17.62,47.45,16.76,50,15.66,53.1Zm40.32,0c-1-2.87-2-5.31-2.83-7.76-.36-1-.57-2.1-2-2.07s-1.53,1-1.87,2c-.89,2.48-1.81,5-2.86,7.82l-3.1-8.56a1.64,1.64,0,0,0-2.23-1.17,1.54,1.54,0,0,0-1,2.19c1.54,4.37,3.09,8.73,4.73,13.06a2,2,0,0,0,1.49,1.07A2.26,2.26,0,0,0,48,58.56c.76-1.67,1.29-3.44,1.93-5.17.38-1,.78-2.07,1.31-3.43,1.11,3.08,2,5.77,3.08,8.39A2.35,2.35,0,0,0,56,59.64c.57,0,1.31-.71,1.67-1.29a14.49,14.49,0,0,0,1-2.65c1.19-3.31,2.45-6.61,3.52-10a2.76,2.76,0,0,0-.57-2.19c-.24-.3-1.31-.2-1.83.06s-.68.91-.87,1.44C57.94,47.57,57,50.12,56,53.08Z"/><path class="cls-2" d="M99.43,35.92H80.61l-4-15c1-.33,2.09-.64,3.15-1.06,2.35-.95,4.65-2,7-2.88a1.85,1.85,0,0,1,1.61.11A49.28,49.28,0,0,1,99.43,35.92Z"/><path class="cls-2" d="M25.72,21.16c-1.3,4.89-2.59,9.77-3.91,14.74h-19C3.9,33.4,4.84,31,6,28.71a46.4,46.4,0,0,1,7.79-11.29c.32-.35,1-.75,1.38-.61C18.68,18.2,22.21,19.7,25.72,21.16Z"/><path class="cls-2" d="M25.72,81.82c-3.49,1.45-7,2.93-10.57,4.36a1.17,1.17,0,0,1-1.06-.24A49.78,49.78,0,0,1,3,67.09H21.81Q23.76,74.41,25.72,81.82Z"/><path class="cls-2" d="M76.69,81.81c1.3-4.92,2.6-9.79,3.9-14.71H99.42a49.69,49.69,0,0,1-8,15.25c-.9,1.17-1.87,2.29-2.87,3.38-.27.29-.87.61-1.15.5C83.78,84.79,80.21,83.28,76.69,81.81Z"/><path class="cls-2" d="M52.91,24.78l20.52-2.52c1.17,4.25,2.42,8.82,3.73,13.6H52.91Z"/><path class="cls-2" d="M52.84,78.49V67.13H77.23c-1.31,4.5-2.55,8.83-3.88,13.14-.1.3-.9.61-1.32.55-4-.57-8-1.3-12-1.83C57.69,78.68,55.31,78.65,52.84,78.49Z"/><path class="cls-2" d="M49.29,24.49v11.4h-24c.89-3.43,1.71-6.73,2.61-10,.35-1.26.58-3,1.46-3.54s2.46.21,3.74.36l14.6,1.63Z"/><path class="cls-2" d="M49.25,78.22,29,80.75,25.25,67.12h24Z"/><path class="cls-2" d="M52.79,21.42V.69a37.46,37.46,0,0,1,4.9,1.64C64.67,5.77,68.48,12,72,19.06Z"/><path class="cls-2" d="M52.86,102v-20A90.76,90.76,0,0,1,71.5,84.18C70.37,91.47,59.8,101.61,52.86,102Z"/><path class="cls-2" d="M49.25,101.83c-6.11.28-16.13-9.3-18.52-17.93l18.52-2.31Z"/><path class="cls-2" d="M49.31,1.1V20.83c-2.29.58-12.86-.62-18.42-2.08C33.9,10.23,42.18,1.29,49.31,1.1Z"/><path class="cls-2" d="M37.62,2.78A46.86,46.86,0,0,0,27.28,18L17,14.13A48.94,48.94,0,0,1,37.62,2.78Z"/><path class="cls-2" d="M64.87,2.66A50.91,50.91,0,0,1,85.4,14.11L75.34,17.92c-1.62-2.8-3-5.54-4.7-8S66.85,5.11,64.87,2.66Z"/><path class="cls-2" d="M37.52,100.31A50.92,50.92,0,0,1,17,88.88l10-3.81c1.66,2.86,3,5.6,4.76,8.1S35.58,97.9,37.52,100.31Z"/><path class="cls-2" d="M75.14,85,85.4,88.87a49,49,0,0,1-20.58,11.32A47.29,47.29,0,0,0,75.14,85Z"/></symbol></defs><use width="102.4" height="102.49" transform="scale(3.09 3.05)" xlink:href="#pagina_web"/></svg>